<svg width="1283" height="956" viewBox="0 0 1283 956" fill="none" xmlns="http://www.w3.org/2000/svg">
<path fill-rule="evenodd" clip-rule="evenodd" d="M199.178 338.333H400.517V394H199.178H198.86V393.998C182.278 393.842 168.888 381.441 168.888 366.167C168.888 350.892 182.278 338.491 198.86 338.335V338.333H199.178Z" fill="#282933"/>
<path fill-rule="evenodd" clip-rule="evenodd" d="M199.178 561H400.517V616.667H199.178H198.86V616.665C182.278 616.508 168.888 604.108 168.888 588.833C168.888 573.559 182.278 561.158 198.86 561.001V561H199.178Z" fill="#282933"/>
<path fill-rule="evenodd" clip-rule="evenodd" d="M339.046 672.333H400.517V728H339.046C322.317 728 308.756 715.539 308.756 700.167C308.756 684.795 322.317 672.333 339.046 672.333Z" fill="#282933"/>
<path fill-rule="evenodd" clip-rule="evenodd" d="M339.046 227H400.517V282.667H339.046C322.317 282.667 308.756 270.205 308.756 254.833C308.756 239.461 322.317 227 339.046 227Z" fill="#282933"/>
<path fill-rule="evenodd" clip-rule="evenodd" d="M100.29 449.667H400.517V505.333H100.29H99.3991V505.321C83.0824 504.888 70 492.598 70 477.5C70 462.402 83.0824 450.112 99.3991 449.678V449.667H100.29Z" fill="#282933"/>
<path fill-rule="evenodd" clip-rule="evenodd" d="M400.517 394H366.663C383.392 394 396.953 406.461 396.953 421.833C396.953 437.205 383.392 449.667 366.663 449.667H400.517V394Z" fill="#282933"/>
<path fill-rule="evenodd" clip-rule="evenodd" d="M400.517 505.333H366.663C383.392 505.333 396.953 517.795 396.953 533.167C396.953 548.539 383.392 561 366.663 561H400.517V505.333Z" fill="#282933"/>
<path fill-rule="evenodd" clip-rule="evenodd" d="M400.517 616.667H366.663C383.392 616.667 396.953 629.128 396.953 644.5C396.953 659.872 383.392 672.333 366.663 672.333H400.517V616.667Z" fill="#282933"/>
<path fill-rule="evenodd" clip-rule="evenodd" d="M400.517 282.667H366.663C383.392 282.667 396.953 295.128 396.953 310.5C396.953 325.872 383.392 338.333 366.663 338.333H400.517V282.667Z" fill="#282933"/>
<path fill-rule="evenodd" clip-rule="evenodd" d="M882.483 616.667L1084.14 616.667L1084.14 616.665C1100.72 616.508 1114.11 604.108 1114.11 588.833C1114.11 573.559 1100.72 561.158 1084.14 561.001L1084.14 561L1083.84 561C1083.83 561 1083.83 561 1083.82 561C1083.82 561 1083.81 561 1083.81 561L882.483 561L882.483 616.667Z" fill="#282933"/>
<path fill-rule="evenodd" clip-rule="evenodd" d="M1083.82 394L882.483 394L882.483 338.333L1083.82 338.333L1084.14 338.333L1084.14 338.335C1100.72 338.492 1114.11 350.892 1114.11 366.167C1114.11 381.441 1100.72 393.842 1084.14 393.999L1084.14 394L1083.82 394Z" fill="#282933"/>
<path fill-rule="evenodd" clip-rule="evenodd" d="M882.483 282.667L943.954 282.667C943.954 282.667 943.954 282.667 943.954 282.667C960.683 282.667 974.244 270.205 974.244 254.833C974.244 239.461 960.683 227 943.954 227C943.954 227 943.954 227 943.954 227C943.949 227 943.943 227 943.938 227L882.483 227L882.483 282.667Z" fill="#282933"/>
<path fill-rule="evenodd" clip-rule="evenodd" d="M882.483 728L943.954 728C943.954 728 943.954 728 943.954 728C960.683 728 974.244 715.539 974.244 700.167C974.244 684.795 960.683 672.333 943.954 672.333C943.949 672.333 943.943 672.333 943.938 672.333L882.483 672.333L882.483 728Z" fill="#282933"/>
<path fill-rule="evenodd" clip-rule="evenodd" d="M882.483 505.333L1183.6 505.333L1183.6 505.322C1199.92 504.888 1213 492.598 1213 477.5C1213 462.402 1199.92 450.112 1183.6 449.679L1183.6 449.667L1182.73 449.667C1182.72 449.667 1182.72 449.667 1182.71 449.667C1182.7 449.667 1182.7 449.667 1182.69 449.667L882.483 449.667L882.483 505.333Z" fill="#282933"/>
<path fill-rule="evenodd" clip-rule="evenodd" d="M882.483 561L916.337 561C899.608 561 886.047 548.539 886.047 533.167C886.047 517.795 899.608 505.333 916.337 505.333L882.483 505.333L882.483 561Z" fill="#282933"/>
<path fill-rule="evenodd" clip-rule="evenodd" d="M882.483 449.667L916.337 449.667C899.608 449.667 886.047 437.205 886.047 421.833C886.047 406.461 899.608 394 916.337 394L882.483 394L882.483 449.667Z" fill="#282933"/>
<path fill-rule="evenodd" clip-rule="evenodd" d="M882.483 338.333L916.337 338.333C899.608 338.333 886.047 325.872 886.047 310.5C886.047 295.128 899.608 282.667 916.337 282.667L882.483 282.667L882.483 338.333Z" fill="#282933"/>
<path fill-rule="evenodd" clip-rule="evenodd" d="M882.483 672.333L916.337 672.333C899.608 672.333 886.047 659.872 886.047 644.5C886.047 629.128 899.608 616.667 916.337 616.667L882.483 616.667L882.483 672.333Z" fill="#282933"/>
<rect x="400.517" y="227" width="481.966" height="501" fill="#282933"/>
<path fill-rule="evenodd" clip-rule="evenodd" d="M199.29 106H260.761V161.667H199.29C182.561 161.667 169 149.205 169 133.833C169 118.461 182.561 106 199.29 106Z" fill="#282933"/>
<path fill-rule="evenodd" clip-rule="evenodd" d="M322.471 161.667L261 161.667L261 106L322.471 106C339.199 106 352.761 118.461 352.761 133.833C352.761 149.205 339.199 161.667 322.471 161.667Z" fill="#282933"/>
<path d="M384 133.833C384 118.461 397.561 106 414.29 106C431.019 106 444.58 118.461 444.58 133.833C444.58 149.205 431.019 161.667 414.29 161.667C397.561 161.667 384 149.205 384 133.833Z" fill="#282933"/>
<path fill-rule="evenodd" clip-rule="evenodd" d="M932.483 134H965.935V164.293H932.483C932.483 164.293 932.483 164.293 932.483 164.293C923.38 164.293 916 157.512 916 149.147C916 140.781 923.38 134 932.483 134C932.483 134 932.483 134 932.483 134Z" fill="#282933"/>
<path fill-rule="evenodd" clip-rule="evenodd" d="M999.501 164.293L966.065 164.293L966.065 134L999.517 134C1008.62 134 1016 140.781 1016 149.147C1016 157.512 1008.62 164.293 999.517 164.293C999.511 164.293 999.506 164.293 999.501 164.293Z" fill="#282933"/>
<path d="M866 149.147C866 140.781 873.38 134 882.483 134C891.587 134 898.967 140.781 898.967 149.147C898.967 157.512 891.587 164.293 882.483 164.293C873.38 164.293 866 157.512 866 149.147Z" fill="#282933"/>
</svg>
