<?xml version="1.0" encoding="UTF-8"?>
<svg id="Layer_2" data-name="Layer 2" xmlns="http://www.w3.org/2000/svg" viewBox="0 0 624 1079.9">
  <defs>
    <style>
      .cls-1 {
        fill: #718096;
      }

      .cls-1, .cls-2, .cls-3, .cls-4, .cls-5, .cls-6 {
        stroke-width: 2px;
      }

      .cls-1, .cls-2, .cls-3, .cls-4, .cls-5, .cls-6, .cls-7 {
        stroke-linecap: round;
        stroke-linejoin: round;
      }

      .cls-1, .cls-2, .cls-4, .cls-6, .cls-7 {
        stroke: #2d3748;
      }

      .cls-2 {
        fill: #171923;
      }

      .cls-3 {
        fill: #bee0ec;
      }

      .cls-3, .cls-5 {
        stroke: #000;
      }

      .cls-4 {
        fill: #2d3748;
      }

      .cls-5, .cls-6, .cls-7 {
        fill: none;
      }

      .cls-7 {
        stroke-width: 7px;
      }
    </style>
  </defs>
  <g id="DiscoStuMonotone">
    <g>
      <path class="cls-2" d="m202.55,295.36c4.56-26.01,2.7-72.52,2.7-99.78s5.44-107.87,61.59-111.03,58.92,32.54,59.94,38.3,2.85,22.3,2.85,29.26c1.28,2.02,5.02,2.81,6.11,7.37s-.48,15.54.05,30.61-.31,27.93-5.94,28.63c-.85,6.86-4.87,10.43-4.57,15.68s6.63,9.68,11.05,12.22,7.94,2.41,7.46,9.22-9.23,12.55-27.02,12.55c0,4.18-3.21,10.62-12.07,12.55-6.91,1.51-6.61,13.8-7.38,24.18s-.44,24.21,5.09,32.63,15.99,37.34,15.99,69.6-4.95,93.11-14.49,112.11c-24.01-17.12-46.31-48.5-50.39-73.49s-6.49-58.07-21.62-75.16-29.35-49.73-29.35-75.46Z"/>
      <path class="cls-6" d="m317.05,268.53c-12.38,0-44.88-1.47-62.44-8.57"/>
      <path class="cls-6" d="m243.8,268.53c-.54-6.03.21-13.01,4.13-17.57,5.49-7.71,28.28-13.8,30.64-19.89"/>
      <g>
        <ellipse class="cls-2" cx="248.63" cy="189.97" rx="26.75" ry="24"/>
        <ellipse class="cls-2" cx="252.54" cy="190.72" rx="22.84" ry="23.25"/>
      </g>
      <line class="cls-6" x1="240.79" y1="196.77" x2="256.15" y2="181.41"/>
      <line class="cls-6" x1="247.79" y1="199.37" x2="259.69" y2="187.48"/>
      <path class="cls-4" d="m205.07,247.66c-3.87,9.57-8.99,11.57-18.4,9.77s-13.86-17.15-13.86-17.15c0,0-9.52,3.48-17.45-3.58s-5.13-23-5.13-23c0,0-8.75,3.81-15.06-3.84s-5.02-20.08-5.02-20.08c0,0-15.5-5.32-15.5-21.41-.91-16.23,12.84-21.85,12.84-21.85,0,0-6.7-4.39-6.7-13.84s8.47-13.17,8.47-13.17c0,0-2.02-5.17-1.08-16.9s7.85-20.16,19.83-24.29c-.62-9.21.37-13.55,4.58-19.04s14.47-6.94,14.47-6.94c0,0-1.02-8.56,8.06-17.05s23.28-7.55,23.28-7.55c0,0,5.58-9.54,13.91-12.41s20.46,1.31,20.46,1.31c0,0,3.92-14.57,14.34-15.57s16.49,10.02,16.49,10.02c0,0,1.55-4.27,8.36-3.65s13.64,10.27,13.64,10.27c0,0,13.68-10.72,26.63-4.48s16.14,23.34,16.14,23.34c0,0,10.33,1.21,14.09,6.2s3.59,13.84,3.59,13.84c0,0,10.76-.2,12.8,9.82s-1.01,19.74-1.01,19.74c0,0,8.54.83,9.91,11.62s-5.64,16.92-5.64,16.92c0,0,8.54,4.25,8.54,16.92s-11.45,21.87-11.45,21.87c0,0,2.54,18.65-8.71,24.27s-13.67-2.99-13.67-9.74c0-15.17-4.85-9.38-7.73-16.68-1.68-4.28-.82-17.42-.82-17.42,0,0-6.06,1.54-10.69,1.38s-12.55-3.85-12.55-3.85c0,0-6.93,4.57-13.84,3.93s-13.67-6.84-13.67-6.84c0,0-6.62,8.95-14.18,8.37s-11.96-6.49-11.96-6.49c0,0-3.47,7.53-11.62,9.74s-18.8-3.76-18.8-3.76c0,0-.14,5.07-1.37,11.62-2.15,11.49-7.86,12.47-7.86,12.47,0,0,2.67,3.04,1.51,10.49s-3.22,7.62-3.22,7.62c0,0,4.71,10.19.43,17.26-4.18,6.76-5.38,24.45-5.38,24.45v27.33Z"/>
      <g>
        <ellipse class="cls-2" cx="329.86" cy="187.15" rx="21.75" ry="19.68"/>
        <circle class="cls-2" cx="333.61" cy="186.81" r="18"/>
        <line class="cls-6" x1="327.4" y1="190.72" x2="338.04" y2="180.08"/>
        <line class="cls-6" x1="333.61" y1="192.25" x2="341.94" y2="183.92"/>
      </g>
      <path class="cls-2" d="m275.38,192.01c7.27-5.18,26.99-7.02,38.9.5s18.48,26.83,12.65,38.27-31.39,3.53-33.83-.73"/>
      <g>
        <path class="cls-2" d="m211.24,202.13c-4.07-4.64-13.47-5.28-18.98-1.1s-6.76,10.35-6.76,17.51c0,8.35,2.9,14.57,8.28,18.02s12.52,4.42,19.46-2.52"/>
        <path class="cls-2" d="m205.07,208.82c-6.27-1.08-8.85,2.36-9.49,6.8s1.79,7.72,4.95,10.87"/>
      </g>
      <line class="cls-6" x1="210.44" y1="195.88" x2="222.7" y2="195.88"/>
      <path class="cls-6" d="m328.27,133.92c3.35-2.06,3.92-2.56,5.67-4.3"/>
    </g>
    <g>
      <path class="cls-6" d="m256.53,391.97c5.61-5.61,11.29-11.93,12.86-15.8s2.8-9.67.07-11.08-5.76,1.79-4.65,8.69,2.55,12.65,7.66,12.18,9.23-3.38,11.63-6.02,9.23-12.27,5.47-15.12-6.62,2.83-6.09,8,2.32,13.66,12.11,11.83"/>
      <path class="cls-6" d="m274.07,413.09c5.8-6.19,8.6-8.95,10-11.94s3.13-6.5.2-7.38-4.94.06-4.94,5.31,2.38,11.59,8.93,11.19"/>
    </g>
    <g>
      <path class="cls-7" d="m230.89,387.61c14.22,23.6,37.48,48.38,49.99,60.97,4.19,4.22,11.31,2.9,13.7-2.54,7.74-17.59,21.75-53.52,23.49-86.62"/>
      <path class="cls-2" d="m267.76,471.81c-1.36-8.1,3.2-21.47,16.62-24.33s23.82,4.32,25.17,15.7-1.64,20.84-16.96,23.14-23.48-6.41-24.83-14.51Z"/>
      <ellipse class="cls-2" cx="291.45" cy="465.56" rx="18.25" ry="19.5" transform="translate(-52.65 37.44) rotate(-6.74)"/>
    </g>
    <g>
      <path class="cls-2" d="m111.19,596.73c8.73,31.38,9.06,49.1,4.99,63.42s-12.43,25.1-24.12,28.13c-5.33,1.38-9.79,1.19-14.47-.14-9.4,2.44-14.47,1.09-20.63-5.08-8.49,0-17.23-3.04-23.23-8s-9.7-10.68-10.3-18.35c-.53-6.7-.71-11.77,4.28-14.94s8.46-1.38,11.57-.14c-.18-4.99.13-15.62.13-15.62l71.78-29.28Z"/>
      <path class="cls-2" d="m56.96,683.06c9.57-1.19,14.77-5.33,19.91-12.89"/>
      <path class="cls-2" d="m77.6,688.14c9.21-3.3,13.86-9.88,17.6-15.82"/>
      <path class="cls-2" d="m38.72,641.07c2.02,1.43,2.99,3.05,3.86,5.56"/>
    </g>
    <g>
      <path class="cls-2" d="m530.92,125.83c8.9-20.36,17.62-37.77,33.57-50.13s36.78-24.69,45.82-24.37,10.99,6.37,7.77,11.88c-2.37,4.06-9.67,10.78-13.72,13.68s-10.12,6.78-13.41,10.08c2.37,2.65,4.61,7.87,2,12.12,7.27-3.21,15.06-2.41,18.64.6s3.81,7.93,1.78,12.13-5.33,6.63-9.83,9.15c8.68-.76,17.79.31,18.96,5.51s.38,7.49-4.11,11.05-10.19,5.8-16.91,5.57c-3.41,7.19-3.7,11.69-12.05,17.18-7.13,4.69-18.95,5.66-23.44,5.84s-35.08-40.28-35.08-40.28Z"/>
      <path class="cls-2" d="m556.49,93.01c16.31-7.26,31.67-12.13,35.18-4.81s1.64,13.17-4.97,17.37-23.41,5.2-30.72,15.1"/>
      <path class="cls-2" d="m585.93,106.02c-6.66,5.38-5.41,12.74-1.08,15.65s15.76,2.34,22.07-2.24"/>
      <path class="cls-2" d="m608.25,120.65c-8.67,1.48-18.47,5.17-18.76,12.04-.48,11.13,9.96,10.73,13.76,10.4"/>
      <path class="cls-2" d="m571.88,110.89c4.8,7.55,6.74,14.78,3.26,24.71"/>
    </g>
    <g>
      <path class="cls-2" d="m302.57,1048.75c15.47,7.13,24.57,14.85,55.24,14.85s43.45-1.89,47.02-7.36,4.96-14.06,4.96-22.34-1.27-17.45-6.39-20.94c-11.73-11.73-72.85-26.28-83.9-22.42s-19.9,4.31-24.95,15.3,8.02,42.92,8.02,42.92Z"/>
      <path class="cls-4" d="m299.01,1013.2c11.8-5.09,23.49-7.8,30.51-5.03s27.76,11.52,42.91,14.11,27.81,1.27,32.17-3.5,3.5-12.05,1.25-21.77-8.56-18.58-17.72-29.12c-9.05-10.41-34.17-17.11-54.23-13.13s-33.92,11.31-39.65,20.38,4.78,38.06,4.78,38.06Z"/>
      <path class="cls-4" d="m172.51,1016.83s7.87,1.7,28.28,1.7c31.97,0,32.44,9.7,55.89,15.2s49.93,1.26,54.87-2.72c2.7-7.8.92-18.8-7.66-33.12s-42.67-34.91-42.67-34.91c0,0-19.1-.49-44.43,11.75s-44.28,42.1-44.28,42.1Z"/>
      <path class="cls-2" d="m172,1018.64c.2,13.21,0,33.2,0,39.75,5.4,5.4,19.49,13.13,34.18,13.13-.19-4.92,0-6.99.63-9.65,2.99,2.39,16.85,11.81,29.07,14.33s42.37,3.83,54.31,1.41,22.95-7.72,23.99-9.75,2.86-26.62-2.62-36.43c-18.15,4-26.22,5.27-43.63,3.6s-26.36-11.51-45.49-15.21-39.43-2.81-42.78-2.81l-7.67,1.64Z"/>
      <path class="cls-2" d="m166.82,622.2c9.96,53.51,18.33,136.94,18.33,189.2s-9.87,134.64-16.88,167.69-12.15,48.96-12.72,58.31,1.48,12.06,4.97,13.14,7.49,2.4,11.4-.4c.63-7.28.2-17.07-.49-23.52,4.69-5.8,20.05-21.09,49.06-31.13s59.27-8.84,80.22-6.27c1.7-3.66,2.45-5.09,3.48-8.15,4.71-1.28,19.15-10.84,41.38-14.18s37.26-.79,42.75,1.66c1.51-6.38,3.73-10.86-.51-16.04s-12.84-10.88-13.91-19.87,10.8-161.52,4.11-254.23c-31.95-77.19-86.86-111.12-86.86-111.12l-124.33,54.9Z"/>
      <g>
        <path class="cls-2" d="m183.58,853.76c3.93,5.58,6.4,7.02,9.53,7.66,1.1-23.1,11.32-23.34,11.32-43.58,0-20.23-7.64-21.27-7.64-32.61s5.59-16.86,13.17-22.32c-1.86,9.96-.62,19.46,1.43,22.95s9.44,14.93,9.77,22.18-.15,18.42-2.65,28.28-3.56,22.29-2.85,26.68c5.58.56,10.99-2.64,12.53-7.09s1.65-8.19.88-12.85c5.53,7.64,9.33,16.94,8.12,25.36s-5.38,19.32-11.97,30.96-14.36,21.38-13.46,30.22,9.32,7.09,11.5,2.14,2.97-9.35,1.53-14.47c5.9,3.08,9.8,6.35,9.11,15.33s-3.73,17.61-5.18,24.71-3.93,16.51-.86,22.43,5.63,5,6.07,11.87c-16.27,3.18-46.95,15.6-61.94,34.33,0,8.15-.07,8.57-.07,24.19-3.82,3.11-15.26,2.73-16.46-5.3s6.2-35.84,9.09-48.94,16.84-96.4,19.03-142.14Z"/>
        <g>
          <path class="cls-2" d="m175.09,1002.67c.8-2.86,2.95-4.76,4.81-4.24s2.73,3.26,1.93,6.12c-2.01,2.19-3.09,3.51-4.81,4.24-1.86-.52-2.73-3.26-1.93-6.12Z"/>
          <ellipse class="cls-2" cx="189.14" cy="976.33" rx="5.75" ry="3.75" transform="translate(-802.38 899.61) rotate(-74.61)"/>
          <ellipse class="cls-2" cx="200.2" cy="954.15" rx="5.38" ry="3.62" transform="translate(-769.46 852.94) rotate(-72.19)"/>
          <ellipse class="cls-2" cx="196.11" cy="919.78" rx="5.38" ry="4.13" transform="translate(-711.08 671.89) rotate(-62.68)"/>
          <ellipse class="cls-2" cx="203.23" cy="883.44" rx="4.95" ry="3.45" transform="translate(-698.7 792.47) rotate(-71.29)"/>
        </g>
      </g>
      <path class="cls-3" d="m172.11,1025.51c-5.33,6.86-7.43,9.79-10.39,16.36"/>
      <path class="cls-6" d="m303.92,981.75c-.84-8.19-2.14-11.57-9.59-19.03s-13.14-14.58-13.8-22.5,8.78-153.83,6.06-219.12c11.16-6.99,21.86-15.99,26.49-33.08"/>
    </g>
    <g>
      <path class="cls-2" d="m248.82,691.03c0-71.1-.07-176.86-5.24-223.74s-13.85-86.16-33.38-111.94-18.49-41.01-32.08-36.88-45.03,27.96-55.88,35.53,8.66,20.61,13.54,34.51,15,77.85,13.53,98.19-6.54,112.92-15.71,142.27-8.69,34.47-14.62,53.46c13.67,10.09,35.74,22.49,65.46,21.38s49.17-1.23,64.37-12.78Z"/>
      <path class="cls-2" d="m192.51,287.65c-6.98,8.86-23.69,50.51-23.04,58.33s.85,9.82,9.44,13.85,14.46-.86,14.46-.86l-.86-71.32Z"/>
      <path class="cls-2" d="m141.59,601.21c-4.66-5.16-14.44-20.65-19.09-34.03s-24.07-53.77-19.09-77.13c20.03-14.53,39.19-25.37,50.09-34.22s24.21-18.18,25.71-29.87-6.51-38.13-14.74-49.91-21.23-20.26-41.02-22.87c-21.59,14.67-35.71,23.38-64.08,48.71S9.58,448.93,3.4,466.79c-3.91,23.53-2.35,34.17-.19,58.05s8.58,85.62,15.94,99.03c15.35,6.68,38.23,11.43,64.88,4.74s48.33-16.63,57.56-27.41Z"/>
      <path class="cls-2" d="m246.47,522.93c-16.63-18.4-34.06-41.39-52.79-78.74s-30.46-57.45-38.66-73.8c12.54-1.71,64.1,0,64.1,0"/>
      <path class="cls-2" d="m61.86,631.78c-9.39-9.39-14.62-17.73-15.2-26.07s4.36-20.32,8.55-32.19,4.38-24.49,1.23-33.24c-5.1,7.54-7.99,12.93-13.02,12.1s-6.98-6.33-4.92-13.98,8.17-16.96,14.11-27.32,14.88-29.09,14.23-40.08c-4.66,4.37-12.15,9.71-16.5,7.28s-2.82-10.08,1.07-14.49,11.53-8.6,14.07-15.95.1-14.07,3.22-23.11,16.11-23.22,29.81-27.96c-13.36,1.48-24.25,4.7-32.29,9.63s-15.05,11.73-18.55,20.81-2.46,14.7-13.73,19.78c-10.09,4.54-17.24,7.38-19.9,12.99-4.07,8.59,2.81,25.7,1.33,33.07s-5.17,11.98-13.99,10.12c0,11.77,1.33,43.19,5.97,70.24s7.1,49.57,13.48,53.44,29.54,4.92,41.06,4.92Z"/>
      <g>
        <ellipse class="cls-2" cx="27.18" cy="605.68" rx="4" ry="5.25" transform="translate(-64.58 6.38) rotate(-6.14)"/>
        <ellipse class="cls-2" cx="21.58" cy="557.81" rx="3.75" ry="5.37" transform="translate(-48.74 4.03) rotate(-5.02)"/>
        <ellipse class="cls-2" cx="26.16" cy="514.58" rx="4.25" ry="2.98" transform="translate(-488.24 485.08) rotate(-83.81)"/>
        <ellipse class="cls-2" cx="32.51" cy="470.62" rx="4.13" ry="3.37" transform="translate(-437.34 428.4) rotate(-80.91)"/>
      </g>
      <path class="cls-5" d="m364.44,408.17c-1.72,22.39-3.85,41.62-8.74,61.01s-11.91,35.07-21.25,54.55"/>
      <path class="cls-2" d="m129.28,643.06c5.3-12.87,15.36-21.67,29.4-20.98-11.11,7.83-15.48,15.6-14,22.94s4.1,11.2,13.09,13.2,22.99.12,30.83-6.22c8.67-7,12.57-14.03,20.98-15.41-4.91,8.3-3.74,16.04-.52,18.78s13.02,1.41,15.32-6.01-1.68-25.77-5.35-33.76c-5.96-12.97-11.43-25.6-8.68-37.82,7.11,5.05,11.63,4.2,13.97,2.37s7.6-6.31.67-23.09c-6.94-16.78-8.5-13.55-12.05-20.73-2.03-4.12-7.33-21.17-4.02-27.59,4.31,6.98,8.3,11.09,13.17,10.27s8.78-3.97,8.34-14.54c7.49,11.6,9.52,12.46,12.31,16.18.59,5.74,4.31,129.29,6.32,170.75-16.24,11.51-36.87,12.23-59.44,12.23s-42.51.01-70.66-21.19c3.83-14.62,10.3-39.37,10.3-39.37Z"/>
      <path class="cls-2" d="m298.32,309.18c34.33-26.19,65.04-46.64,101.9-77.25,36.86-30.6,98.44-82.2,126.35-117.69,20.79,11.53,41.06,31.47,47.7,51.82s8.5,48.68,6.02,61c-1.6,7.98-.18,9.7-14.16,15.8s-54.64,28.98-102.92,56.89-85.02,53.22-109.49,77.69c-27.77-25.01-55.4-68.28-55.4-68.28Z"/>
      <path class="cls-2" d="m410.99,222.96c6.01,1.83-.18,14.04-4.73,17.14,13.49-3.54,25.93-10.81,31.51-19.12s17.73-26.74,24.13-33.61,14.01-11.26,17.13-6.39,5,14.84-.23,25.63c11.05-10.01,15.7-14.11,18.52-23.35s2.88-24.12,8.19-31.88,16.11-21.35,43.18-21.35c-10.78-10.78-22.14-15.79-22.14-15.79,0,0-17.89,22.37-47.26,49.19-29.45,26.9-50.87,43.59-68.31,59.52Z"/>
      <path class="cls-2" d="m332.57,685.54c0-30.74,4.68-131.5.66-193.5s-28.66-184.41-33.99-199.47c19.15,17.94,37.64,31.97,44.69,36.92-1.28,6.13-11.74,21.48-11.74,21.48,0,0,4.77,3.16,11.74-2s11-10.97,12.6-7.3,10.06,41.98,7.66,69.86c6.67,13.95,14.56,39.38,17.83,64.75s11.74,80.58,14.18,113.63,3.01,62.21,3.01,75.32c-7.83,8.83-27.04,26.39-66.64,20.32Z"/>
      <path class="cls-2" d="m333.41,524.7c5.16-8.8,10.08-20.54,10.08-20.54,0,0-1.25,9.72,5.93,11.22,3.68.77,9.24-3.43,11.18-8.55,2.86,17.39-.5,32.91-6.27,46.16s-12.72,23.03-9.75,29.73c2.15,4.85,10.97,6.67,17.44-8.86,2.58,25.15.79,34.27-2.37,47.27s-2.74,28.14,7.27,29.2,16.34-4.34,18.76-12.33,2.52-12.85.68-18.6c6.73,1.32,10.77,7.04,11.73,10.99,0,7.16,1.04,27.56,1.04,35.95-9.11,8.43-39.65,22.57-49.66,21.59s-16.9.99-17.75-1.56,2.4-70.89,2.4-94.52-.72-67.14-.72-67.14Z"/>
    </g>
    <g>
      <path class="cls-1" d="m296.51,305.13c-.77,10.38-.44,24.21,5.09,32.63,5.52,8.42,15.99,37.34,15.99,69.6s-4.95,93.11-14.49,112.11c-24.01-17.12-45.7-49.76-49.78-74.76s-7.1-56.8-22.23-73.89-28.45-50.21-28.45-75.94c1.2-13.91,2.16-27.92,2.16-27.92,0,0-10.75-5.2-14.58,4.81s-1.75,43.55-3.45,56.17-11.41,64.1-18.95,83.42c17.98-10.58,40.4-23.67,50.19-32.09,0,0,10.89,13.68,14.25,30.38,1.57,7.83,8.69,58.25,11.19,115.68s3.94,125.46,3.94,136.41c12.53,8.1,17.06,13.45,25.5,16.27,10.82-9.65,25.45-27.45,29-35.94,5.42,13.3,10.63,26.72,15.9,29.23,6.81-2.69,12.54-6.68,15.41-10.6,2.12-41.95-.42-82.44-.42-136.31,0-67.63-10.14-141.94-12.68-153.45s-3.3-15.24,9.99-7.29,15.64,10.67,20.08,13.67c-.65-11.84-5.27-21.05-13.64-36.22s-25.34-41.67-37.27-48.52c-1.51,4.66-2.74,12.56-2.74,12.56Z"/>
      <path class="cls-6" d="m218.01,379.27c4.52-3.64,8.65-8.22,10.49-12.58"/>
      <path class="cls-6" d="m315.83,376.36c0-7.28.75-17.2,6.28-16.12s13.66,6.9,13.66,6.9"/>
    </g>
    <path class="cls-6" d="m246.09,949.99c7.57-3.1,12.95-3.45,21.18-3.45"/>
    <path class="cls-6" d="m374.37,934.68c-12.38,0-22.14.77-32.66,3.84"/>
    <path class="cls-2" d="m373.88,927.86c-5.39-5.39-14.21-13.03-13.63-21.93,5.2,5.2,10,6.9,14.24,7.14,0,5.59-.61,14.78-.61,14.78Z"/>
    <path class="cls-2" d="m376.12,862.07c-4.79-3.51-7.96-8.03-7.96-12.58s.62-7.39,2.2-10.71c2.66,4.93,4.58,7.14,6.86,7.69,0,5.02-1.1,15.6-1.1,15.6Z"/>
    <path class="cls-2" d="m378.14,817.74c-5.13-5.13-6.49-10.1-6.69-15.72s1.29-15.5,3.65-20.03c2.76,5.15,4.06,5.36,3.9,8.22s-.86,27.54-.86,27.54Z"/>
  </g>
</svg>