<svg width="624" height="1080" viewBox="0 0 624 1080" fill="none" xmlns="http://www.w3.org/2000/svg">
<g id="disco-stu" clip-path="url(#clip0_1_2)">
<g id="disco-Stu-vector">
<path id="Vector" d="M412.54 155.05C444.01 223.96 442.22 355.65 456.89 470.96C471.55 585.59 502.67 683.16 500.88 781.41C499.45 879.66 464.4 977.91 417.2 1014.76C369.99 1052.29 310.27 1028.41 254.84 1016.81C199.77 1005.21 148.98 1005.89 119.3 957.45C89.62 909.01 81.75 812.12 64.58 719.33C47.77 625.85 22.02 537.16 21.31 438.9C20.59 341.33 44.56 234.21 87.11 172.12C129.31 110.03 189.75 92.29 252.69 86.15C315.63 80.69 380.72 86.15 412.55 155.06L412.54 155.05Z" fill="#805AD5" fill-opacity="0.28"/>
<g id="Group">
<path id="Vector_2" d="M202.55 295.36C207.11 269.35 205.25 222.84 205.25 195.58C205.25 168.32 210.69 87.71 266.84 84.55C322.99 81.39 325.76 117.09 326.78 122.85C327.8 128.61 329.63 145.15 329.63 152.11C330.91 154.13 334.65 154.92 335.74 159.48C336.83 164.04 335.26 175.02 335.79 190.09C336.32 205.16 335.48 218.02 329.85 218.72C329 225.58 324.98 229.15 325.28 234.4C325.58 239.65 331.91 244.08 336.33 246.62C340.75 249.16 344.27 249.03 343.79 255.84C343.31 262.65 334.56 268.39 316.77 268.39C316.77 272.57 313.56 279.01 304.7 280.94C297.79 282.45 298.09 294.74 297.32 305.12C296.55 315.5 296.88 329.33 302.41 337.75C307.94 346.17 318.4 375.09 318.4 407.35C318.4 439.61 313.45 500.46 303.91 519.46C279.9 502.34 257.6 470.96 253.52 445.97C249.44 420.98 247.03 387.9 231.9 370.81C216.77 353.72 202.55 321.08 202.55 295.35V295.36Z" fill="#F8DB03" stroke="black" stroke-width="2" stroke-miterlimit="10"/>
<path id="Vector_3" d="M317.05 268.53C304.67 268.53 272.17 267.06 254.61 259.96" stroke="black" stroke-width="2" stroke-linecap="round" stroke-linejoin="round"/>
<path id="Vector_4" d="M243.8 268.53C243.26 262.5 244.01 255.52 247.93 250.96C253.42 243.25 276.21 237.16 278.57 231.07" stroke="black" stroke-width="2" stroke-linecap="round" stroke-linejoin="round"/>
<g id="Group_2">
<path id="Vector_5" d="M248.63 213.97C263.404 213.97 275.38 203.225 275.38 189.97C275.38 176.715 263.404 165.97 248.63 165.97C233.856 165.97 221.88 176.715 221.88 189.97C221.88 203.225 233.856 213.97 248.63 213.97Z" fill="#951E7F" stroke="black" stroke-width="2" stroke-linecap="round" stroke-linejoin="round"/>
<path id="Vector_6" d="M252.54 213.97C265.154 213.97 275.38 203.561 275.38 190.72C275.38 177.879 265.154 167.47 252.54 167.47C239.926 167.47 229.7 177.879 229.7 190.72C229.7 203.561 239.926 213.97 252.54 213.97Z" stroke="black" stroke-width="2" stroke-linecap="round" stroke-linejoin="round"/>
</g>
<path id="Vector_7" d="M240.79 196.77L256.15 181.41" stroke="black" stroke-width="2" stroke-linecap="round" stroke-linejoin="round"/>
<path id="Vector_8" d="M247.79 199.37L259.69 187.48" stroke="black" stroke-width="2" stroke-linecap="round" stroke-linejoin="round"/>
<path id="Vector_9" d="M205.07 247.66C201.2 257.23 196.08 259.23 186.67 257.43C177.26 255.63 172.81 240.28 172.81 240.28C172.81 240.28 163.29 243.76 155.36 236.7C147.43 229.64 150.23 213.7 150.23 213.7C150.23 213.7 141.48 217.51 135.17 209.86C128.86 202.21 130.15 189.78 130.15 189.78C130.15 189.78 114.65 184.46 114.65 168.37C113.74 152.14 127.49 146.52 127.49 146.52C127.49 146.52 120.79 142.13 120.79 132.68C120.79 123.23 129.26 119.51 129.26 119.51C129.26 119.51 127.24 114.34 128.18 102.61C129.12 90.88 136.03 82.45 148.01 78.32C147.39 69.11 148.38 64.77 152.59 59.28C156.8 53.79 167.06 52.34 167.06 52.34C167.06 52.34 166.04 43.78 175.12 35.29C184.2 26.8 198.4 27.74 198.4 27.74C198.4 27.74 203.98 18.2 212.31 15.33C220.64 12.46 232.77 16.64 232.77 16.64C232.77 16.64 236.69 2.07002 247.11 1.07002C257.53 0.0700216 263.6 11.09 263.6 11.09C263.6 11.09 265.15 6.82002 271.96 7.44002C278.77 8.06002 285.6 17.71 285.6 17.71C285.6 17.71 299.28 6.99002 312.23 13.23C325.18 19.47 328.37 36.57 328.37 36.57C328.37 36.57 338.7 37.78 342.46 42.77C346.22 47.76 346.05 56.61 346.05 56.61C346.05 56.61 356.81 56.41 358.85 66.43C360.89 76.45 357.84 86.17 357.84 86.17C357.84 86.17 366.38 87 367.75 97.79C369.12 108.58 362.11 114.71 362.11 114.71C362.11 114.71 370.65 118.96 370.65 131.63C370.65 144.3 359.2 153.5 359.2 153.5C359.2 153.5 361.74 172.15 350.49 177.77C339.24 183.39 336.82 174.78 336.82 168.03C336.82 152.86 331.97 158.65 329.09 151.35C327.41 147.07 328.27 133.93 328.27 133.93C328.27 133.93 322.21 135.47 317.58 135.31C312.95 135.15 305.03 131.46 305.03 131.46C305.03 131.46 298.1 136.03 291.19 135.39C284.28 134.75 277.52 128.55 277.52 128.55C277.52 128.55 270.9 137.5 263.34 136.92C255.78 136.34 251.38 130.43 251.38 130.43C251.38 130.43 247.91 137.96 239.76 140.17C231.61 142.38 220.96 136.41 220.96 136.41C220.96 136.41 220.82 141.48 219.59 148.03C217.44 159.52 211.73 160.5 211.73 160.5C211.73 160.5 214.4 163.54 213.24 170.99C212.08 178.44 210.02 178.61 210.02 178.61C210.02 178.61 214.73 188.8 210.45 195.87C206.27 202.63 205.07 220.32 205.07 220.32V247.65V247.66Z" fill="#786431" stroke="black" stroke-width="2" stroke-linecap="round" stroke-linejoin="round"/>
<g id="Group_3">
<path id="Vector_10" d="M329.86 206.83C341.872 206.83 351.61 198.019 351.61 187.15C351.61 176.281 341.872 167.47 329.86 167.47C317.848 167.47 308.11 176.281 308.11 187.15C308.11 198.019 317.848 206.83 329.86 206.83Z" fill="#951E7F" stroke="black" stroke-width="2" stroke-linecap="round" stroke-linejoin="round"/>
<path id="Vector_11" d="M333.61 204.81C343.551 204.81 351.61 196.751 351.61 186.81C351.61 176.869 343.551 168.81 333.61 168.81C323.669 168.81 315.61 176.869 315.61 186.81C315.61 196.751 323.669 204.81 333.61 204.81Z" stroke="black" stroke-width="2" stroke-linecap="round" stroke-linejoin="round"/>
<path id="Vector_12" d="M327.4 190.72L338.04 180.08" stroke="black" stroke-width="2" stroke-linecap="round" stroke-linejoin="round"/>
<path id="Vector_13" d="M333.61 192.25L341.94 183.92" stroke="black" stroke-width="2" stroke-linecap="round" stroke-linejoin="round"/>
</g>
<g id="Vector_14">
<path d="M275.38 192.01C282.65 186.83 302.37 184.99 314.28 192.51C326.19 200.03 332.76 219.34 326.93 230.78C321.1 242.22 295.54 234.31 293.1 230.05" fill="#F8DB03"/>
<path d="M275.38 192.01C282.65 186.83 302.37 184.99 314.28 192.51C326.19 200.03 332.76 219.34 326.93 230.78C321.1 242.22 295.54 234.31 293.1 230.05" stroke="black" stroke-width="2" stroke-linecap="round" stroke-linejoin="round"/>
</g>
<g id="Group_4">
<g id="Vector_15">
<path d="M211.24 202.13C207.17 197.49 197.77 196.85 192.26 201.03C186.75 205.21 185.5 211.38 185.5 218.54C185.5 226.89 188.4 233.11 193.78 236.56C199.16 240.01 206.3 240.98 213.24 234.04" fill="#F8DB03"/>
<path d="M211.24 202.13C207.17 197.49 197.77 196.85 192.26 201.03C186.75 205.21 185.5 211.38 185.5 218.54C185.5 226.89 188.4 233.11 193.78 236.56C199.16 240.01 206.3 240.98 213.24 234.04" stroke="black" stroke-width="2" stroke-linecap="round" stroke-linejoin="round"/>
</g>
<path id="Vector_16" d="M205.07 208.82C198.8 207.74 196.22 211.18 195.58 215.62C194.94 220.06 197.37 223.34 200.53 226.49" stroke="black" stroke-width="2" stroke-linecap="round" stroke-linejoin="round"/>
</g>
<path id="Vector_17" d="M210.44 195.88H222.7" stroke="black" stroke-width="2" stroke-linecap="round" stroke-linejoin="round"/>
<path id="Vector_18" d="M328.27 133.92C331.62 131.86 332.19 131.36 333.94 129.62" stroke="black" stroke-width="2" stroke-linecap="round" stroke-linejoin="round"/>
</g>
<g id="Group_5">
<path id="Vector_19" d="M256.53 391.97C262.14 386.36 267.82 380.04 269.39 376.17C270.96 372.3 272.19 366.5 269.46 365.09C266.73 363.68 263.7 366.88 264.81 373.78C265.92 380.68 267.36 386.43 272.47 385.96C277.58 385.49 281.7 382.58 284.1 379.94C286.5 377.3 293.33 367.67 289.57 364.82C285.81 361.97 282.95 367.65 283.48 372.82C284.01 377.99 285.8 386.48 295.59 384.65" stroke="black" stroke-width="2" stroke-linecap="round" stroke-linejoin="round"/>
<path id="Vector_20" d="M274.07 413.09C279.87 406.9 282.67 404.14 284.07 401.15C285.47 398.16 287.2 394.65 284.27 393.77C281.34 392.89 279.33 393.83 279.33 399.08C279.33 404.33 281.71 410.67 288.26 410.27" stroke="black" stroke-width="2" stroke-linecap="round" stroke-linejoin="round"/>
</g>
<g id="Group_6">
<path id="Vector_21" d="M230.89 387.61C245.11 411.21 268.37 435.99 280.88 448.58C285.07 452.8 292.19 451.48 294.58 446.04C302.32 428.45 316.33 392.52 318.07 359.42" stroke="black" stroke-width="7" stroke-linecap="round" stroke-linejoin="round"/>
<path id="Vector_22" d="M267.76 471.81C266.4 463.71 270.96 450.34 284.38 447.48C297.8 444.62 308.2 451.8 309.55 463.18C310.9 474.56 307.91 484.02 292.59 486.32C277.27 488.62 269.11 479.91 267.76 471.81Z" fill="#D3A803" stroke="black" stroke-width="2" stroke-linecap="round" stroke-linejoin="round"/>
<path id="Vector_23" d="M293.714 484.942C303.724 483.759 310.814 474.13 309.55 463.435C308.286 452.74 299.147 445.029 289.137 446.212C279.128 447.394 272.038 457.024 273.302 467.719C274.566 478.414 283.705 486.125 293.714 484.942Z" stroke="black" stroke-width="2" stroke-linecap="round" stroke-linejoin="round"/>
</g>
<g id="Group_7">
<path id="Vector_24" d="M111.19 596.73C119.92 628.11 120.25 645.83 116.18 660.15C112.11 674.47 103.75 685.25 92.06 688.28C86.73 689.66 82.27 689.47 77.59 688.14C68.19 690.58 63.12 689.23 56.96 683.06C48.47 683.06 39.73 680.02 33.73 675.06C27.73 670.1 24.03 664.38 23.43 656.71C22.9 650.01 22.72 644.94 27.71 641.77C32.7 638.6 36.17 640.39 39.28 641.63C39.1 636.64 39.41 626.01 39.41 626.01L111.19 596.73Z" fill="#F8DB03" stroke="black" stroke-width="2" stroke-linecap="round" stroke-linejoin="round"/>
<path id="Vector_25" d="M56.96 683.06C66.53 681.87 71.73 677.73 76.87 670.17" stroke="black" stroke-width="2" stroke-linecap="round" stroke-linejoin="round"/>
<path id="Vector_26" d="M77.6 688.14C86.81 684.84 91.46 678.26 95.2 672.32" stroke="black" stroke-width="2" stroke-linecap="round" stroke-linejoin="round"/>
<path id="Vector_27" d="M38.72 641.07C40.74 642.5 41.71 644.12 42.58 646.63" stroke="black" stroke-width="2" stroke-linecap="round" stroke-linejoin="round"/>
</g>
<g id="Group_8">
<path id="Vector_28" d="M530.92 125.83C539.82 105.47 548.54 88.06 564.49 75.7C580.44 63.34 601.27 51.01 610.31 51.33C619.35 51.65 621.3 57.7 618.08 63.21C615.71 67.27 608.41 73.99 604.36 76.89C600.31 79.79 594.24 83.67 590.95 86.97C593.32 89.62 595.56 94.84 592.95 99.09C600.22 95.88 608.01 96.68 611.59 99.69C615.17 102.7 615.4 107.62 613.37 111.82C611.34 116.02 608.04 118.45 603.54 120.97C612.22 120.21 621.33 121.28 622.5 126.48C623.67 131.68 622.88 133.97 618.39 137.53C613.9 141.09 608.2 143.33 601.48 143.1C598.07 150.29 597.78 154.79 589.43 160.28C582.3 164.97 570.48 165.94 565.99 166.12C561.5 166.3 530.91 125.84 530.91 125.84L530.92 125.83Z" fill="#F8DB03" stroke="black" stroke-width="2" stroke-linecap="round" stroke-linejoin="round"/>
<path id="Vector_29" d="M556.49 93.01C572.8 85.75 588.16 80.88 591.67 88.2C595.18 95.52 593.31 101.37 586.7 105.57C580.09 109.77 563.29 110.77 555.98 120.67" stroke="black" stroke-width="2" stroke-linecap="round" stroke-linejoin="round"/>
<path id="Vector_30" d="M585.93 106.02C579.27 111.4 580.52 118.76 584.85 121.67C589.18 124.58 600.61 124.01 606.92 119.43" stroke="black" stroke-width="2" stroke-linecap="round" stroke-linejoin="round"/>
<path id="Vector_31" d="M608.25 120.65C599.58 122.13 589.78 125.82 589.49 132.69C589.01 143.82 599.45 143.42 603.25 143.09" stroke="black" stroke-width="2" stroke-linecap="round" stroke-linejoin="round"/>
<path id="Vector_32" d="M571.88 110.89C576.68 118.44 578.62 125.67 575.14 135.6" stroke="black" stroke-width="2" stroke-linecap="round" stroke-linejoin="round"/>
</g>
<g id="Group_9">
<path id="Vector_33" d="M302.57 1048.75C318.04 1055.88 327.14 1063.6 357.81 1063.6C388.48 1063.6 401.26 1061.71 404.83 1056.24C408.4 1050.77 409.79 1042.18 409.79 1033.9C409.79 1025.62 408.52 1016.45 403.4 1012.96C391.67 1001.23 330.55 986.68 319.5 990.54C308.45 994.4 299.6 994.85 294.55 1005.84C289.5 1016.83 302.57 1048.76 302.57 1048.76V1048.75Z" fill="#BEE0EC" stroke="black" stroke-width="2" stroke-linecap="round" stroke-linejoin="round"/>
<path id="Vector_34" d="M299.01 1013.2C310.81 1008.11 322.5 1005.4 329.52 1008.17C336.54 1010.94 357.28 1019.69 372.43 1022.28C387.58 1024.87 400.24 1023.55 404.6 1018.78C408.96 1014.01 408.1 1006.73 405.85 997.01C403.6 987.29 397.29 978.43 388.13 967.89C379.08 957.48 353.96 950.78 333.9 954.76C313.84 958.74 299.98 966.07 294.25 975.14C288.52 984.21 299.03 1013.2 299.03 1013.2H299.01Z" fill="#3C4049" stroke="black" stroke-width="2" stroke-linecap="round" stroke-linejoin="round"/>
<path id="Vector_35" d="M172.51 1016.83C172.51 1016.83 180.38 1018.53 200.79 1018.53C232.76 1018.53 233.23 1028.23 256.68 1033.73C280.13 1039.23 306.61 1034.99 311.55 1031.01C314.25 1023.21 312.47 1012.21 303.89 997.89C295.31 983.57 261.22 962.98 261.22 962.98C261.22 962.98 242.12 962.49 216.79 974.73C191.46 986.97 172.51 1016.83 172.51 1016.83Z" fill="#3C4049" stroke="black" stroke-width="2" stroke-linecap="round" stroke-linejoin="round"/>
<path id="Vector_36" d="M172 1018.64C172.2 1031.85 172 1051.84 172 1058.39C177.4 1063.79 191.49 1071.52 206.18 1071.52C205.99 1066.6 206.18 1064.53 206.81 1061.87C209.8 1064.26 223.66 1073.68 235.88 1076.2C248.1 1078.72 278.25 1080.03 290.19 1077.61C302.13 1075.19 313.14 1069.89 314.18 1067.86C315.22 1065.83 317.04 1041.24 311.56 1031.43C293.41 1035.43 285.34 1036.7 267.93 1035.03C250.52 1033.36 241.57 1023.52 222.44 1019.82C203.31 1016.12 183.01 1017.01 179.66 1017.01L171.99 1018.65L172 1018.64Z" fill="#BEE0EC" stroke="black" stroke-width="2" stroke-linecap="round" stroke-linejoin="round"/>
<path id="Vector_37" d="M166.82 622.2C176.78 675.71 185.15 759.14 185.15 811.4C185.15 863.66 175.28 946.04 168.27 979.09C161.26 1012.14 156.12 1028.05 155.55 1037.4C154.98 1046.75 157.03 1049.46 160.52 1050.54C164.01 1051.62 168.01 1052.94 171.92 1050.14C172.55 1042.86 172.12 1033.07 171.43 1026.62C176.12 1020.82 191.48 1005.53 220.49 995.49C249.5 985.45 279.76 986.65 300.71 989.22C302.41 985.56 303.16 984.13 304.19 981.07C308.9 979.79 323.34 970.23 345.57 966.89C367.8 963.55 382.83 966.1 388.32 968.55C389.83 962.17 392.05 957.69 387.81 952.51C383.57 947.33 374.97 941.63 373.9 932.64C372.83 923.65 384.7 771.12 378.01 678.41C346.06 601.22 291.15 567.29 291.15 567.29L166.82 622.19V622.2Z" fill="white" stroke="black" stroke-width="2" stroke-linecap="round" stroke-linejoin="round"/>
<g id="Group_10">
<path id="Vector_38" d="M183.58 853.76C187.51 859.34 189.98 860.78 193.11 861.42C194.21 838.32 204.43 838.08 204.43 817.84C204.43 797.61 196.79 796.57 196.79 785.23C196.79 773.89 202.38 768.37 209.96 762.91C208.1 772.87 209.34 782.37 211.39 785.86C213.44 789.35 220.83 800.79 221.16 808.04C221.49 815.29 221.01 826.46 218.51 836.32C216.01 846.18 214.95 858.61 215.66 863C221.24 863.56 226.65 860.36 228.19 855.91C229.73 851.46 229.84 847.72 229.07 843.06C234.6 850.7 238.4 860 237.19 868.42C235.98 876.84 231.81 887.74 225.22 899.38C218.63 911.02 210.86 920.76 211.76 929.6C212.66 938.44 221.08 936.69 223.26 931.74C225.44 926.79 226.23 922.39 224.79 917.27C230.69 920.35 234.59 923.62 233.9 932.6C233.21 941.58 230.17 950.21 228.72 957.31C227.27 964.41 224.79 973.82 227.86 979.74C230.93 985.66 233.49 984.74 233.93 991.61C217.66 994.79 186.98 1007.21 171.99 1025.94C171.99 1034.09 171.92 1034.51 171.92 1050.13C168.1 1053.24 156.66 1052.86 155.46 1044.83C154.26 1036.8 161.66 1008.99 164.55 995.89C167.44 982.79 181.39 899.49 183.58 853.75V853.76Z" fill="#E9B3CB" stroke="black" stroke-width="2" stroke-linecap="round" stroke-linejoin="round"/>
<g id="Group_11">
<path id="Vector_39" d="M175.09 1002.67C175.89 999.81 178.04 997.91 179.9 998.43C181.76 998.95 182.63 1001.69 181.83 1004.55C179.82 1006.74 178.74 1008.06 177.02 1008.79C175.16 1008.27 174.29 1005.53 175.09 1002.67Z" fill="#B5B1C2" stroke="black" stroke-width="2" stroke-linecap="round" stroke-linejoin="round"/>
<path id="Vector_40" d="M192.752 977.354C193.594 974.292 192.659 971.364 190.662 970.815C188.665 970.265 186.363 972.301 185.52 975.363C184.678 978.425 185.613 981.353 187.61 981.902C189.607 982.452 191.909 980.415 192.752 977.354Z" fill="#B5B1C2" stroke="black" stroke-width="2" stroke-linecap="round" stroke-linejoin="round"/>
<path id="Vector_41" d="M203.643 955.279C204.552 952.45 203.746 949.661 201.842 949.05C199.939 948.438 197.659 950.236 196.75 953.065C195.842 955.894 196.648 958.683 198.551 959.294C200.455 959.906 202.735 958.108 203.643 955.279Z" fill="#B5B1C2" stroke="black" stroke-width="2" stroke-linecap="round" stroke-linejoin="round"/>
<path id="Vector_42" d="M199.781 921.692C201.145 919.052 200.607 916.064 198.581 915.017C196.554 913.97 193.806 915.261 192.442 917.901C191.079 920.541 191.616 923.53 193.642 924.577C195.669 925.623 198.417 924.332 199.781 921.692Z" fill="#B5B1C2" stroke="black" stroke-width="2" stroke-linecap="round" stroke-linejoin="round"/>
<path id="Vector_43" d="M206.513 884.475C207.39 881.886 206.638 879.291 204.834 878.68C203.029 878.069 200.855 879.672 199.978 882.262C199.101 884.851 199.853 887.445 201.658 888.057C203.463 888.668 205.637 887.064 206.513 884.475Z" fill="#B5B1C2" stroke="black" stroke-width="2" stroke-linecap="round" stroke-linejoin="round"/>
</g>
</g>
<g id="Vector_44">
<path d="M172.11 1025.51C166.78 1032.37 164.68 1035.3 161.72 1041.87Z" fill="#BEE0EC"/>
<path d="M172.11 1025.51C166.78 1032.37 164.68 1035.3 161.72 1041.87" stroke="black" stroke-width="2" stroke-linecap="round" stroke-linejoin="round"/>
</g>
<path id="Vector_45" d="M303.92 981.75C303.08 973.56 301.78 970.18 294.33 962.72C286.88 955.26 281.19 948.14 280.53 940.22C279.87 932.3 289.31 786.39 286.59 721.1C297.75 714.11 308.45 705.11 313.08 688.02" stroke="black" stroke-width="2" stroke-linecap="round" stroke-linejoin="round"/>
</g>
<g id="Group_12">
<path id="Vector_46" d="M248.82 691.03C248.82 619.93 248.75 514.17 243.58 467.29C238.41 420.41 229.73 381.13 210.2 355.35C190.67 329.57 191.71 314.34 178.12 318.47C164.53 322.6 133.09 346.43 122.24 354C111.39 361.57 130.9 374.61 135.78 388.51C140.66 402.41 150.78 466.36 149.31 486.7C147.84 507.04 142.77 599.62 133.6 628.97C124.43 658.32 124.91 663.44 118.98 682.43C132.65 692.52 154.72 704.92 184.44 703.81C214.16 702.7 233.61 702.58 248.81 691.03H248.82Z" fill="white" stroke="black" stroke-width="2" stroke-linecap="round" stroke-linejoin="round"/>
<path id="Vector_47" d="M192.51 287.65C185.53 296.51 168.82 338.16 169.47 345.98C170.12 353.8 170.32 355.8 178.91 359.83C187.5 363.86 193.37 358.97 193.37 358.97L192.51 287.65Z" fill="white" stroke="black" stroke-width="2" stroke-linecap="round" stroke-linejoin="round"/>
<path id="Vector_48" d="M141.59 601.21C136.93 596.05 127.15 580.56 122.5 567.18C117.85 553.8 98.43 513.41 103.41 490.05C123.44 475.52 142.6 464.68 153.5 455.83C164.4 446.98 177.71 437.65 179.21 425.96C180.71 414.27 172.7 387.83 164.47 376.05C156.24 364.27 143.24 355.79 123.45 353.18C101.86 367.85 87.74 376.56 59.37 401.89C31 427.22 9.58 448.93 3.4 466.79C-0.510002 490.32 1.05 500.96 3.21 524.84C5.37 548.72 11.79 610.46 19.15 623.87C34.5 630.55 57.38 635.3 84.03 628.61C110.68 621.92 132.36 611.98 141.59 601.2V601.21Z" fill="white" stroke="black" stroke-width="2" stroke-linecap="round" stroke-linejoin="round"/>
<g id="Vector_49">
<path d="M246.47 522.93C229.84 504.53 212.41 481.54 193.68 444.19C174.95 406.84 163.22 386.74 155.02 370.39C167.56 368.68 219.12 370.39 219.12 370.39" fill="white"/>
<path d="M246.47 522.93C229.84 504.53 212.41 481.54 193.68 444.19C174.95 406.84 163.22 386.74 155.02 370.39C167.56 368.68 219.12 370.39 219.12 370.39" stroke="black" stroke-width="2" stroke-linecap="round" stroke-linejoin="round"/>
</g>
<path id="Vector_50" d="M61.86 631.78C52.47 622.39 47.24 614.05 46.66 605.71C46.08 597.37 51.02 585.39 55.21 573.52C59.4 561.65 59.59 549.03 56.44 540.28C51.34 547.82 48.45 553.21 43.42 552.38C38.39 551.55 36.44 546.05 38.5 538.4C40.56 530.75 46.67 521.44 52.61 511.08C58.55 500.72 67.49 481.99 66.84 471C62.18 475.37 54.69 480.71 50.34 478.28C45.99 475.85 47.52 468.2 51.41 463.79C55.3 459.38 62.94 455.19 65.48 447.84C68.02 440.49 65.58 433.77 68.7 424.73C71.82 415.69 84.81 401.51 98.51 396.77C85.15 398.25 74.26 401.47 66.22 406.4C58.18 411.33 51.17 418.13 47.67 427.21C44.17 436.29 45.21 441.91 33.94 446.99C23.85 451.53 16.7 454.37 14.04 459.98C9.97 468.57 16.85 485.68 15.37 493.05C13.89 500.42 10.2 505.03 1.38 503.17C1.38 514.94 2.71 546.36 7.35 573.41C11.99 600.46 14.45 622.98 20.83 626.85C27.21 630.72 50.37 631.77 61.89 631.77L61.86 631.78Z" fill="#F1B3CC" stroke="black" stroke-width="2" stroke-linecap="round" stroke-linejoin="round"/>
<g id="Group_13">
<path id="Vector_51" d="M27.7881 610.898C29.9845 610.662 31.5137 608.133 31.2036 605.251C30.8935 602.368 28.8615 600.222 26.665 600.459C24.4685 600.695 22.9393 603.223 23.2495 606.106C23.5596 608.989 25.5916 611.135 27.7881 610.898Z" fill="#B6B5C5" stroke="black" stroke-width="2" stroke-linecap="round" stroke-linejoin="round"/>
<path id="Vector_52" d="M22.0383 563.171C24.1014 562.99 25.5631 560.444 25.3031 557.484C25.0431 554.524 23.1599 552.271 21.0968 552.453C19.0336 552.634 17.5719 555.18 17.8319 558.14C18.0919 561.1 19.9752 563.353 22.0383 563.171Z" fill="#B6B5C5" stroke="black" stroke-width="2" stroke-linecap="round" stroke-linejoin="round"/>
<path id="Vector_53" d="M29.1232 514.879C29.3763 512.545 28.2551 510.51 26.6189 510.332C24.9827 510.155 23.4511 511.903 23.198 514.236C22.9449 516.57 24.0662 518.605 25.7024 518.783C27.3386 518.96 28.8701 517.212 29.1232 514.879Z" fill="#B6B5C5" stroke="black" stroke-width="2" stroke-linecap="round" stroke-linejoin="round"/>
<path id="Vector_54" d="M35.8334 471.182C36.1938 468.93 34.9961 466.865 33.1583 466.571C31.3204 466.277 29.5385 467.865 29.1781 470.117C28.8177 472.369 30.0155 474.434 31.8533 474.728C33.6911 475.022 35.4731 473.434 35.8334 471.182Z" fill="#B6B5C5" stroke="black" stroke-width="2" stroke-linecap="round" stroke-linejoin="round"/>
</g>
<path id="Vector_55" d="M364.44 408.17C362.72 430.56 360.59 449.79 355.7 469.18C350.81 488.57 343.79 504.25 334.45 523.73" stroke="black" stroke-width="2" stroke-linecap="round" stroke-linejoin="round"/>
<path id="Vector_56" d="M129.28 643.06C134.58 630.19 144.64 621.39 158.68 622.08C147.57 629.91 143.2 637.68 144.68 645.02C146.16 652.36 148.78 656.22 157.77 658.22C166.76 660.22 180.76 658.34 188.6 652C197.27 645 201.17 637.97 209.58 636.59C204.67 644.89 205.84 652.63 209.06 655.37C212.28 658.11 222.08 656.78 224.38 649.36C226.68 641.94 222.7 623.59 219.03 615.6C213.07 602.63 207.6 590 210.35 577.78C217.46 582.83 221.98 581.98 224.32 580.15C226.66 578.32 231.92 573.84 224.99 557.06C218.06 540.28 216.49 543.51 212.94 536.33C210.91 532.21 205.61 515.16 208.92 508.74C213.23 515.72 217.22 519.83 222.09 519.01C226.96 518.19 230.87 515.04 230.43 504.47C237.92 516.07 239.95 516.93 242.74 520.65C243.33 526.39 247.05 649.94 249.06 691.4C232.82 702.91 212.19 703.63 189.62 703.63C167.05 703.63 147.11 703.64 118.96 682.44C122.79 667.82 129.26 643.07 129.26 643.07L129.28 643.06Z" fill="#EFB4CA" stroke="black" stroke-width="2" stroke-linecap="round" stroke-linejoin="round"/>
<path id="Vector_57" d="M298.32 309.18C332.65 282.99 363.36 262.54 400.22 231.93C437.08 201.33 498.66 149.73 526.57 114.24C547.36 125.77 567.63 145.71 574.27 166.06C580.91 186.41 582.77 214.74 580.29 227.06C578.69 235.04 580.11 236.76 566.13 242.86C552.15 248.96 511.49 271.84 463.21 299.75C414.93 327.66 378.19 352.97 353.72 377.44C325.95 352.43 298.32 309.16 298.32 309.16V309.18Z" fill="white" stroke="black" stroke-width="2" stroke-linecap="round" stroke-linejoin="round"/>
<path id="Vector_58" d="M410.99 222.96C417 224.79 410.81 237 406.26 240.1C419.75 236.56 432.19 229.29 437.77 220.98C443.35 212.67 455.5 194.24 461.9 187.37C468.3 180.5 475.91 176.11 479.03 180.98C482.15 185.85 484.03 195.82 478.8 206.61C489.85 196.6 494.5 192.5 497.32 183.26C500.14 174.02 500.2 159.14 505.51 151.38C510.82 143.62 521.62 130.03 548.69 130.03C537.91 119.25 526.55 114.24 526.55 114.24C526.55 114.24 508.66 136.61 479.29 163.43C449.84 190.33 428.42 207.02 410.98 222.95L410.99 222.96Z" fill="#EFB4CA" stroke="black" stroke-width="2" stroke-linecap="round" stroke-linejoin="round"/>
<path id="Vector_59" d="M332.57 685.54C332.57 654.8 337.25 554.04 333.23 492.04C329.21 430.04 304.57 307.63 299.24 292.57C318.39 310.51 336.88 324.54 343.93 329.49C342.65 335.62 332.19 350.97 332.19 350.97C332.19 350.97 336.96 354.13 343.93 348.97C350.9 343.81 354.93 338 356.53 341.67C358.13 345.34 366.59 383.65 364.19 411.53C370.86 425.48 378.75 450.91 382.02 476.28C385.29 501.65 393.76 556.86 396.2 589.91C398.64 622.96 399.21 652.12 399.21 665.23C391.38 674.06 372.17 691.62 332.57 685.55V685.54Z" fill="white" stroke="black" stroke-width="2" stroke-linecap="round" stroke-linejoin="round"/>
<path id="Vector_60" d="M333.41 524.7C338.57 515.9 343.49 504.16 343.49 504.16C343.49 504.16 342.24 513.88 349.42 515.38C353.1 516.15 358.66 511.95 360.6 506.83C363.46 524.22 360.1 539.74 354.33 552.99C348.56 566.24 341.61 576.02 344.58 582.72C346.73 587.57 355.55 589.39 362.02 573.86C364.6 599.01 362.81 608.13 359.65 621.13C356.49 634.13 356.91 649.27 366.92 650.33C376.93 651.39 383.26 645.99 385.68 638C388.1 630.01 388.2 625.15 386.36 619.4C393.09 620.72 397.13 626.44 398.09 630.39C398.09 637.55 399.13 657.95 399.13 666.34C390.02 674.77 359.48 688.91 349.47 687.93C339.46 686.95 332.57 688.92 331.72 686.37C330.87 683.82 334.12 615.48 334.12 591.85C334.12 568.22 333.4 524.71 333.4 524.71L333.41 524.7Z" fill="#E9B3CB" stroke="black" stroke-width="2" stroke-linecap="round" stroke-linejoin="round"/>
</g>
<g id="Group_14">
<path id="Vector_61" d="M296.51 305.13C295.74 315.51 296.07 329.34 301.6 337.76C307.12 346.18 317.59 375.1 317.59 407.36C317.59 439.62 312.64 500.47 303.1 519.47C279.09 502.35 257.4 469.71 253.32 444.71C249.24 419.71 246.22 387.91 231.09 370.82C215.96 353.73 202.64 320.61 202.64 294.88C203.84 280.97 204.8 266.96 204.8 266.96C204.8 266.96 194.05 261.76 190.22 271.77C186.39 281.78 188.47 315.32 186.77 327.94C185.07 340.56 175.36 392.04 167.82 411.36C185.8 400.78 208.22 387.69 218.01 379.27C218.01 379.27 228.9 392.95 232.26 409.65C233.83 417.48 240.95 467.9 243.45 525.33C245.95 582.76 247.39 650.79 247.39 661.74C259.92 669.84 264.45 675.19 272.89 678.01C283.71 668.36 298.34 650.56 301.89 642.07C307.31 655.37 312.52 668.79 317.79 671.3C324.6 668.61 330.33 664.62 333.2 660.7C335.32 618.75 332.78 578.26 332.78 524.39C332.78 456.76 322.64 382.45 320.1 370.94C317.56 359.43 316.8 355.7 330.09 363.65C343.38 371.6 345.73 374.32 350.17 377.32C349.52 365.48 344.9 356.27 336.53 341.1C328.16 325.93 311.19 299.43 299.26 292.58C297.75 297.24 296.52 305.14 296.52 305.14L296.51 305.13Z" fill="#9C9DCB" stroke="black" stroke-width="2" stroke-linecap="round" stroke-linejoin="round"/>
<path id="Vector_62" d="M218.01 379.27C222.53 375.63 226.66 371.05 228.5 366.69" stroke="black" stroke-width="2" stroke-linecap="round" stroke-linejoin="round"/>
<path id="Vector_63" d="M315.83 376.36C315.83 369.08 316.58 359.16 322.11 360.24C327.64 361.32 335.77 367.14 335.77 367.14" stroke="black" stroke-width="2" stroke-linecap="round" stroke-linejoin="round"/>
</g>
<path id="Vector_64" d="M246.09 949.99C253.66 946.89 259.04 946.54 267.27 946.54" stroke="black" stroke-width="2" stroke-linecap="round" stroke-linejoin="round"/>
<path id="Vector_65" d="M374.37 934.68C361.99 934.68 352.23 935.45 341.71 938.52" stroke="black" stroke-width="2" stroke-linecap="round" stroke-linejoin="round"/>
<path id="Vector_66" d="M373.88 927.86C368.49 922.47 359.67 914.83 360.25 905.93C365.45 911.13 370.25 912.83 374.49 913.07C374.49 918.66 373.88 927.85 373.88 927.85V927.86Z" fill="#E9B3CB" stroke="black" stroke-width="2" stroke-linecap="round" stroke-linejoin="round"/>
<path id="Vector_67" d="M376.12 862.07C371.33 858.56 368.16 854.04 368.16 849.49C368.16 844.94 368.78 842.1 370.36 838.78C373.02 843.71 374.94 845.92 377.22 846.47C377.22 851.49 376.12 862.07 376.12 862.07Z" fill="#E9B3CB" stroke="black" stroke-width="2" stroke-linecap="round" stroke-linejoin="round"/>
<path id="Vector_68" d="M378.14 817.74C373.01 812.61 371.65 807.64 371.45 802.02C371.25 796.4 372.74 786.52 375.1 781.99C377.86 787.14 379.16 787.35 379 790.21C378.84 793.07 378.14 817.75 378.14 817.75V817.74Z" fill="#E9B3CB" stroke="black" stroke-width="2" stroke-linecap="round" stroke-linejoin="round"/>
<path id="blue-bg" d="M412.54 155.05C444.01 223.96 442.22 355.65 456.89 470.96C471.55 585.59 502.67 683.16 500.88 781.41C499.45 879.66 464.4 977.91 417.2 1014.76C369.99 1052.29 310.27 1028.41 254.84 1016.81C199.77 1005.21 148.98 1005.89 119.3 957.45C89.62 909.01 81.75 812.12 64.58 719.33C47.77 625.85 22.02 537.16 21.31 438.9C20.59 341.33 44.56 234.21 87.11 172.12C129.31 110.03 189.75 92.29 252.69 86.15C315.63 80.69 380.72 86.15 412.55 155.06L412.54 155.05Z" fill="#0382F8"/>
<g id="Group_15">
<path id="Vector_69" d="M202.55 295.36C207.11 269.35 205.25 222.84 205.25 195.58C205.25 168.32 210.69 87.71 266.84 84.55C322.99 81.39 325.76 117.09 326.78 122.85C327.8 128.61 329.63 145.15 329.63 152.11C330.91 154.13 334.65 154.92 335.74 159.48C336.83 164.04 335.26 175.02 335.79 190.09C336.32 205.16 335.48 218.02 329.85 218.72C329 225.58 324.98 229.15 325.28 234.4C325.58 239.65 331.91 244.08 336.33 246.62C340.75 249.16 344.27 249.03 343.79 255.84C343.31 262.65 334.56 268.39 316.77 268.39C316.77 272.57 313.56 279.01 304.7 280.94C297.79 282.45 298.09 294.74 297.32 305.12C296.55 315.5 296.88 329.33 302.41 337.75C307.94 346.17 318.4 375.09 318.4 407.35C318.4 439.61 313.45 500.46 303.91 519.46C279.9 502.34 257.6 470.96 253.52 445.97C249.44 420.98 247.03 387.9 231.9 370.81C216.77 353.72 202.55 321.08 202.55 295.35V295.36Z" fill="#F8DB03" stroke="black" stroke-width="2" stroke-miterlimit="10"/>
<path id="Vector_70" d="M317.05 268.53C304.67 268.53 272.17 267.06 254.61 259.96" stroke="black" stroke-width="2" stroke-linecap="round" stroke-linejoin="round"/>
<path id="Vector_71" d="M243.8 268.53C243.26 262.5 244.01 255.52 247.93 250.96C253.42 243.25 276.21 237.16 278.57 231.07" stroke="black" stroke-width="2" stroke-linecap="round" stroke-linejoin="round"/>
<g id="Group_16">
<path id="Vector_72" d="M248.63 213.97C263.404 213.97 275.38 203.225 275.38 189.97C275.38 176.715 263.404 165.97 248.63 165.97C233.856 165.97 221.88 176.715 221.88 189.97C221.88 203.225 233.856 213.97 248.63 213.97Z" fill="#951E7F" stroke="black" stroke-width="2" stroke-linecap="round" stroke-linejoin="round"/>
<path id="Vector_73" d="M252.54 213.97C265.154 213.97 275.38 203.561 275.38 190.72C275.38 177.879 265.154 167.47 252.54 167.47C239.926 167.47 229.7 177.879 229.7 190.72C229.7 203.561 239.926 213.97 252.54 213.97Z" stroke="black" stroke-width="2" stroke-linecap="round" stroke-linejoin="round"/>
</g>
<path id="Vector_74" d="M240.79 196.77L256.15 181.41" stroke="black" stroke-width="2" stroke-linecap="round" stroke-linejoin="round"/>
<path id="Vector_75" d="M247.79 199.37L259.69 187.48" stroke="black" stroke-width="2" stroke-linecap="round" stroke-linejoin="round"/>
<path id="Vector_76" d="M205.07 247.66C201.2 257.23 196.08 259.23 186.67 257.43C177.26 255.63 172.81 240.28 172.81 240.28C172.81 240.28 163.29 243.76 155.36 236.7C147.43 229.64 150.23 213.7 150.23 213.7C150.23 213.7 141.48 217.51 135.17 209.86C128.86 202.21 130.15 189.78 130.15 189.78C130.15 189.78 114.65 184.46 114.65 168.37C113.74 152.14 127.49 146.52 127.49 146.52C127.49 146.52 120.79 142.13 120.79 132.68C120.79 123.23 129.26 119.51 129.26 119.51C129.26 119.51 127.24 114.34 128.18 102.61C129.12 90.88 136.03 82.45 148.01 78.32C147.39 69.11 148.38 64.77 152.59 59.28C156.8 53.79 167.06 52.34 167.06 52.34C167.06 52.34 166.04 43.78 175.12 35.29C184.2 26.8 198.4 27.74 198.4 27.74C198.4 27.74 203.98 18.2 212.31 15.33C220.64 12.46 232.77 16.64 232.77 16.64C232.77 16.64 236.69 2.07002 247.11 1.07002C257.53 0.0700216 263.6 11.09 263.6 11.09C263.6 11.09 265.15 6.82002 271.96 7.44002C278.77 8.06002 285.6 17.71 285.6 17.71C285.6 17.71 299.28 6.99002 312.23 13.23C325.18 19.47 328.37 36.57 328.37 36.57C328.37 36.57 338.7 37.78 342.46 42.77C346.22 47.76 346.05 56.61 346.05 56.61C346.05 56.61 356.81 56.41 358.85 66.43C360.89 76.45 357.84 86.17 357.84 86.17C357.84 86.17 366.38 87 367.75 97.79C369.12 108.58 362.11 114.71 362.11 114.71C362.11 114.71 370.65 118.96 370.65 131.63C370.65 144.3 359.2 153.5 359.2 153.5C359.2 153.5 361.74 172.15 350.49 177.77C339.24 183.39 336.82 174.78 336.82 168.03C336.82 152.86 331.97 158.65 329.09 151.35C327.41 147.07 328.27 133.93 328.27 133.93C328.27 133.93 322.21 135.47 317.58 135.31C312.95 135.15 305.03 131.46 305.03 131.46C305.03 131.46 298.1 136.03 291.19 135.39C284.28 134.75 277.52 128.55 277.52 128.55C277.52 128.55 270.9 137.5 263.34 136.92C255.78 136.34 251.38 130.43 251.38 130.43C251.38 130.43 247.91 137.96 239.76 140.17C231.61 142.38 220.96 136.41 220.96 136.41C220.96 136.41 220.82 141.48 219.59 148.03C217.44 159.52 211.73 160.5 211.73 160.5C211.73 160.5 214.4 163.54 213.24 170.99C212.08 178.44 210.02 178.61 210.02 178.61C210.02 178.61 214.73 188.8 210.45 195.87C206.27 202.63 205.07 220.32 205.07 220.32V247.65V247.66Z" fill="#786431" stroke="black" stroke-width="2" stroke-linecap="round" stroke-linejoin="round"/>
<g id="Group_17">
<path id="Vector_77" d="M329.86 206.83C341.872 206.83 351.61 198.019 351.61 187.15C351.61 176.281 341.872 167.47 329.86 167.47C317.848 167.47 308.11 176.281 308.11 187.15C308.11 198.019 317.848 206.83 329.86 206.83Z" fill="#951E7F" stroke="black" stroke-width="2" stroke-linecap="round" stroke-linejoin="round"/>
<path id="Vector_78" d="M333.61 204.81C343.551 204.81 351.61 196.751 351.61 186.81C351.61 176.869 343.551 168.81 333.61 168.81C323.669 168.81 315.61 176.869 315.61 186.81C315.61 196.751 323.669 204.81 333.61 204.81Z" stroke="black" stroke-width="2" stroke-linecap="round" stroke-linejoin="round"/>
<path id="Vector_79" d="M327.4 190.72L338.04 180.08" stroke="black" stroke-width="2" stroke-linecap="round" stroke-linejoin="round"/>
<path id="Vector_80" d="M333.61 192.25L341.94 183.92" stroke="black" stroke-width="2" stroke-linecap="round" stroke-linejoin="round"/>
</g>
<g id="Vector_81">
<path d="M275.38 192.01C282.65 186.83 302.37 184.99 314.28 192.51C326.19 200.03 332.76 219.34 326.93 230.78C321.1 242.22 295.54 234.31 293.1 230.05" fill="#F8DB03"/>
<path d="M275.38 192.01C282.65 186.83 302.37 184.99 314.28 192.51C326.19 200.03 332.76 219.34 326.93 230.78C321.1 242.22 295.54 234.31 293.1 230.05" stroke="black" stroke-width="2" stroke-linecap="round" stroke-linejoin="round"/>
</g>
<g id="Group_18">
<g id="Vector_82">
<path d="M211.24 202.13C207.17 197.49 197.77 196.85 192.26 201.03C186.75 205.21 185.5 211.38 185.5 218.54C185.5 226.89 188.4 233.11 193.78 236.56C199.16 240.01 206.3 240.98 213.24 234.04" fill="#F8DB03"/>
<path d="M211.24 202.13C207.17 197.49 197.77 196.85 192.26 201.03C186.75 205.21 185.5 211.38 185.5 218.54C185.5 226.89 188.4 233.11 193.78 236.56C199.16 240.01 206.3 240.98 213.24 234.04" stroke="black" stroke-width="2" stroke-linecap="round" stroke-linejoin="round"/>
</g>
<path id="Vector_83" d="M205.07 208.82C198.8 207.74 196.22 211.18 195.58 215.62C194.94 220.06 197.37 223.34 200.53 226.49" stroke="black" stroke-width="2" stroke-linecap="round" stroke-linejoin="round"/>
</g>
<path id="Vector_84" d="M210.44 195.88H222.7" stroke="black" stroke-width="2" stroke-linecap="round" stroke-linejoin="round"/>
<path id="Vector_85" d="M328.27 133.92C331.62 131.86 332.19 131.36 333.94 129.62" stroke="black" stroke-width="2" stroke-linecap="round" stroke-linejoin="round"/>
</g>
<g id="Group_19">
<path id="Vector_86" d="M256.53 391.97C262.14 386.36 267.82 380.04 269.39 376.17C270.96 372.3 272.19 366.5 269.46 365.09C266.73 363.68 263.7 366.88 264.81 373.78C265.92 380.68 267.36 386.43 272.47 385.96C277.58 385.49 281.7 382.58 284.1 379.94C286.5 377.3 293.33 367.67 289.57 364.82C285.81 361.97 282.95 367.65 283.48 372.82C284.01 377.99 285.8 386.48 295.59 384.65" stroke="black" stroke-width="2" stroke-linecap="round" stroke-linejoin="round"/>
<path id="Vector_87" d="M274.07 413.09C279.87 406.9 282.67 404.14 284.07 401.15C285.47 398.16 287.2 394.65 284.27 393.77C281.34 392.89 279.33 393.83 279.33 399.08C279.33 404.33 281.71 410.67 288.26 410.27" stroke="black" stroke-width="2" stroke-linecap="round" stroke-linejoin="round"/>
</g>
<g id="Group_20">
<path id="Vector_88" d="M230.89 387.61C245.11 411.21 268.37 435.99 280.88 448.58C285.07 452.8 292.19 451.48 294.58 446.04C302.32 428.45 316.33 392.52 318.07 359.42" stroke="black" stroke-width="7" stroke-linecap="round" stroke-linejoin="round"/>
<path id="Vector_89" d="M267.76 471.81C266.4 463.71 270.96 450.34 284.38 447.48C297.8 444.62 308.2 451.8 309.55 463.18C310.9 474.56 307.91 484.02 292.59 486.32C277.27 488.62 269.11 479.91 267.76 471.81Z" fill="#D3A803" stroke="black" stroke-width="2" stroke-linecap="round" stroke-linejoin="round"/>
<path id="Vector_90" d="M293.714 484.942C303.724 483.759 310.814 474.13 309.55 463.435C308.286 452.74 299.147 445.029 289.137 446.212C279.128 447.394 272.038 457.024 273.302 467.719C274.566 478.414 283.705 486.125 293.714 484.942Z" stroke="black" stroke-width="2" stroke-linecap="round" stroke-linejoin="round"/>
</g>
<g id="Group_21">
<path id="Vector_91" d="M111.19 596.73C119.92 628.11 120.25 645.83 116.18 660.15C112.11 674.47 103.75 685.25 92.06 688.28C86.73 689.66 82.27 689.47 77.59 688.14C68.19 690.58 63.12 689.23 56.96 683.06C48.47 683.06 39.73 680.02 33.73 675.06C27.73 670.1 24.03 664.38 23.43 656.71C22.9 650.01 22.72 644.94 27.71 641.77C32.7 638.6 36.17 640.39 39.28 641.63C39.1 636.64 39.41 626.01 39.41 626.01L111.19 596.73Z" fill="#F8DB03" stroke="black" stroke-width="2" stroke-linecap="round" stroke-linejoin="round"/>
<path id="Vector_92" d="M56.96 683.06C66.53 681.87 71.73 677.73 76.87 670.17" stroke="black" stroke-width="2" stroke-linecap="round" stroke-linejoin="round"/>
<path id="Vector_93" d="M77.6 688.14C86.81 684.84 91.46 678.26 95.2 672.32" stroke="black" stroke-width="2" stroke-linecap="round" stroke-linejoin="round"/>
<path id="Vector_94" d="M38.72 641.07C40.74 642.5 41.71 644.12 42.58 646.63" stroke="black" stroke-width="2" stroke-linecap="round" stroke-linejoin="round"/>
</g>
<g id="Group_22">
<path id="Vector_95" d="M530.92 125.83C539.82 105.47 548.54 88.06 564.49 75.7C580.44 63.34 601.27 51.01 610.31 51.33C619.35 51.65 621.3 57.7 618.08 63.21C615.71 67.27 608.41 73.99 604.36 76.89C600.31 79.79 594.24 83.67 590.95 86.97C593.32 89.62 595.56 94.84 592.95 99.09C600.22 95.88 608.01 96.68 611.59 99.69C615.17 102.7 615.4 107.62 613.37 111.82C611.34 116.02 608.04 118.45 603.54 120.97C612.22 120.21 621.33 121.28 622.5 126.48C623.67 131.68 622.88 133.97 618.39 137.53C613.9 141.09 608.2 143.33 601.48 143.1C598.07 150.29 597.78 154.79 589.43 160.28C582.3 164.97 570.48 165.94 565.99 166.12C561.5 166.3 530.91 125.84 530.91 125.84L530.92 125.83Z" fill="#F8DB03" stroke="black" stroke-width="2" stroke-linecap="round" stroke-linejoin="round"/>
<path id="Vector_96" d="M556.49 93.01C572.8 85.75 588.16 80.88 591.67 88.2C595.18 95.52 593.31 101.37 586.7 105.57C580.09 109.77 563.29 110.77 555.98 120.67" stroke="black" stroke-width="2" stroke-linecap="round" stroke-linejoin="round"/>
<path id="Vector_97" d="M585.93 106.02C579.27 111.4 580.52 118.76 584.85 121.67C589.18 124.58 600.61 124.01 606.92 119.43" stroke="black" stroke-width="2" stroke-linecap="round" stroke-linejoin="round"/>
<path id="Vector_98" d="M608.25 120.65C599.58 122.13 589.78 125.82 589.49 132.69C589.01 143.82 599.45 143.42 603.25 143.09" stroke="black" stroke-width="2" stroke-linecap="round" stroke-linejoin="round"/>
<path id="Vector_99" d="M571.88 110.89C576.68 118.44 578.62 125.67 575.14 135.6" stroke="black" stroke-width="2" stroke-linecap="round" stroke-linejoin="round"/>
</g>
<g id="Group_23">
<path id="Vector_100" d="M302.57 1048.75C318.04 1055.88 327.14 1063.6 357.81 1063.6C388.48 1063.6 401.26 1061.71 404.83 1056.24C408.4 1050.77 409.79 1042.18 409.79 1033.9C409.79 1025.62 408.52 1016.45 403.4 1012.96C391.67 1001.23 330.55 986.68 319.5 990.54C308.45 994.4 299.6 994.85 294.55 1005.84C289.5 1016.83 302.57 1048.76 302.57 1048.76V1048.75Z" fill="#BEE0EC" stroke="black" stroke-width="2" stroke-linecap="round" stroke-linejoin="round"/>
<path id="Vector_101" d="M299.01 1013.2C310.81 1008.11 322.5 1005.4 329.52 1008.17C336.54 1010.94 357.28 1019.69 372.43 1022.28C387.58 1024.87 400.24 1023.55 404.6 1018.78C408.96 1014.01 408.1 1006.73 405.85 997.01C403.6 987.29 397.29 978.43 388.13 967.89C379.08 957.48 353.96 950.78 333.9 954.76C313.84 958.74 299.98 966.07 294.25 975.14C288.52 984.21 299.03 1013.2 299.03 1013.2H299.01Z" fill="#3C4049" stroke="black" stroke-width="2" stroke-linecap="round" stroke-linejoin="round"/>
<path id="Vector_102" d="M172.51 1016.83C172.51 1016.83 180.38 1018.53 200.79 1018.53C232.76 1018.53 233.23 1028.23 256.68 1033.73C280.13 1039.23 306.61 1034.99 311.55 1031.01C314.25 1023.21 312.47 1012.21 303.89 997.89C295.31 983.57 261.22 962.98 261.22 962.98C261.22 962.98 242.12 962.49 216.79 974.73C191.46 986.97 172.51 1016.83 172.51 1016.83Z" fill="#3C4049" stroke="black" stroke-width="2" stroke-linecap="round" stroke-linejoin="round"/>
<path id="Vector_103" d="M172 1018.64C172.2 1031.85 172 1051.84 172 1058.39C177.4 1063.79 191.49 1071.52 206.18 1071.52C205.99 1066.6 206.18 1064.53 206.81 1061.87C209.8 1064.26 223.66 1073.68 235.88 1076.2C248.1 1078.72 278.25 1080.03 290.19 1077.61C302.13 1075.19 313.14 1069.89 314.18 1067.86C315.22 1065.83 317.04 1041.24 311.56 1031.43C293.41 1035.43 285.34 1036.7 267.93 1035.03C250.52 1033.36 241.57 1023.52 222.44 1019.82C203.31 1016.12 183.01 1017.01 179.66 1017.01L171.99 1018.65L172 1018.64Z" fill="#BEE0EC" stroke="black" stroke-width="2" stroke-linecap="round" stroke-linejoin="round"/>
<path id="Vector_104" d="M166.82 622.2C176.78 675.71 185.15 759.14 185.15 811.4C185.15 863.66 175.28 946.04 168.27 979.09C161.26 1012.14 156.12 1028.05 155.55 1037.4C154.98 1046.75 157.03 1049.46 160.52 1050.54C164.01 1051.62 168.01 1052.94 171.92 1050.14C172.55 1042.86 172.12 1033.07 171.43 1026.62C176.12 1020.82 191.48 1005.53 220.49 995.49C249.5 985.45 279.76 986.65 300.71 989.22C302.41 985.56 303.16 984.13 304.19 981.07C308.9 979.79 323.34 970.23 345.57 966.89C367.8 963.55 382.83 966.1 388.32 968.55C389.83 962.17 392.05 957.69 387.81 952.51C383.57 947.33 374.97 941.63 373.9 932.64C372.83 923.65 384.7 771.12 378.01 678.41C346.06 601.22 291.15 567.29 291.15 567.29L166.82 622.19V622.2Z" fill="white" stroke="black" stroke-width="2" stroke-linecap="round" stroke-linejoin="round"/>
<g id="Group_24">
<path id="Vector_105" d="M183.58 853.76C187.51 859.34 189.98 860.78 193.11 861.42C194.21 838.32 204.43 838.08 204.43 817.84C204.43 797.61 196.79 796.57 196.79 785.23C196.79 773.89 202.38 768.37 209.96 762.91C208.1 772.87 209.34 782.37 211.39 785.86C213.44 789.35 220.83 800.79 221.16 808.04C221.49 815.29 221.01 826.46 218.51 836.32C216.01 846.18 214.95 858.61 215.66 863C221.24 863.56 226.65 860.36 228.19 855.91C229.73 851.46 229.84 847.72 229.07 843.06C234.6 850.7 238.4 860 237.19 868.42C235.98 876.84 231.81 887.74 225.22 899.38C218.63 911.02 210.86 920.76 211.76 929.6C212.66 938.44 221.08 936.69 223.26 931.74C225.44 926.79 226.23 922.39 224.79 917.27C230.69 920.35 234.59 923.62 233.9 932.6C233.21 941.58 230.17 950.21 228.72 957.31C227.27 964.41 224.79 973.82 227.86 979.74C230.93 985.66 233.49 984.74 233.93 991.61C217.66 994.79 186.98 1007.21 171.99 1025.94C171.99 1034.09 171.92 1034.51 171.92 1050.13C168.1 1053.24 156.66 1052.86 155.46 1044.83C154.26 1036.8 161.66 1008.99 164.55 995.89C167.44 982.79 181.39 899.49 183.58 853.75V853.76Z" fill="#E9B3CB" stroke="black" stroke-width="2" stroke-linecap="round" stroke-linejoin="round"/>
<g id="Group_25">
<path id="Vector_106" d="M175.09 1002.67C175.89 999.81 178.04 997.91 179.9 998.43C181.76 998.95 182.63 1001.69 181.83 1004.55C179.82 1006.74 178.74 1008.06 177.02 1008.79C175.16 1008.27 174.29 1005.53 175.09 1002.67Z" fill="#B5B1C2" stroke="black" stroke-width="2" stroke-linecap="round" stroke-linejoin="round"/>
<path id="Vector_107" d="M192.752 977.354C193.594 974.292 192.659 971.364 190.662 970.815C188.665 970.265 186.363 972.301 185.52 975.363C184.678 978.425 185.613 981.353 187.61 981.902C189.607 982.452 191.909 980.415 192.752 977.354Z" fill="#B5B1C2" stroke="black" stroke-width="2" stroke-linecap="round" stroke-linejoin="round"/>
<path id="Vector_108" d="M203.643 955.279C204.552 952.45 203.746 949.661 201.842 949.05C199.939 948.438 197.659 950.236 196.75 953.065C195.842 955.894 196.648 958.683 198.551 959.294C200.455 959.906 202.735 958.108 203.643 955.279Z" fill="#B5B1C2" stroke="black" stroke-width="2" stroke-linecap="round" stroke-linejoin="round"/>
<path id="Vector_109" d="M199.781 921.692C201.145 919.052 200.607 916.064 198.581 915.017C196.554 913.97 193.806 915.261 192.442 917.901C191.079 920.541 191.616 923.53 193.642 924.577C195.669 925.623 198.417 924.332 199.781 921.692Z" fill="#B5B1C2" stroke="black" stroke-width="2" stroke-linecap="round" stroke-linejoin="round"/>
<path id="Vector_110" d="M206.513 884.475C207.39 881.886 206.638 879.291 204.834 878.68C203.029 878.069 200.855 879.672 199.978 882.262C199.101 884.851 199.853 887.445 201.658 888.057C203.463 888.668 205.637 887.064 206.513 884.475Z" fill="#B5B1C2" stroke="black" stroke-width="2" stroke-linecap="round" stroke-linejoin="round"/>
</g>
</g>
<g id="Vector_111">
<path d="M172.11 1025.51C166.78 1032.37 164.68 1035.3 161.72 1041.87Z" fill="#BEE0EC"/>
<path d="M172.11 1025.51C166.78 1032.37 164.68 1035.3 161.72 1041.87" stroke="black" stroke-width="2" stroke-linecap="round" stroke-linejoin="round"/>
</g>
<path id="Vector_112" d="M303.92 981.75C303.08 973.56 301.78 970.18 294.33 962.72C286.88 955.26 281.19 948.14 280.53 940.22C279.87 932.3 289.31 786.39 286.59 721.1C297.75 714.11 308.45 705.11 313.08 688.02" stroke="black" stroke-width="2" stroke-linecap="round" stroke-linejoin="round"/>
</g>
<g id="Group_26">
<path id="Vector_113" d="M248.82 691.03C248.82 619.93 248.75 514.17 243.58 467.29C238.41 420.41 229.73 381.13 210.2 355.35C190.67 329.57 191.71 314.34 178.12 318.47C164.53 322.6 133.09 346.43 122.24 354C111.39 361.57 130.9 374.61 135.78 388.51C140.66 402.41 150.78 466.36 149.31 486.7C147.84 507.04 142.77 599.62 133.6 628.97C124.43 658.32 124.91 663.44 118.98 682.43C132.65 692.52 154.72 704.92 184.44 703.81C214.16 702.7 233.61 702.58 248.81 691.03H248.82Z" fill="white" stroke="black" stroke-width="2" stroke-linecap="round" stroke-linejoin="round"/>
<path id="Vector_114" d="M192.51 287.65C185.53 296.51 168.82 338.16 169.47 345.98C170.12 353.8 170.32 355.8 178.91 359.83C187.5 363.86 193.37 358.97 193.37 358.97L192.51 287.65Z" fill="white" stroke="black" stroke-width="2" stroke-linecap="round" stroke-linejoin="round"/>
<path id="Vector_115" d="M141.59 601.21C136.93 596.05 127.15 580.56 122.5 567.18C117.85 553.8 98.43 513.41 103.41 490.05C123.44 475.52 142.6 464.68 153.5 455.83C164.4 446.98 177.71 437.65 179.21 425.96C180.71 414.27 172.7 387.83 164.47 376.05C156.24 364.27 143.24 355.79 123.45 353.18C101.86 367.85 87.74 376.56 59.37 401.89C31 427.22 9.58 448.93 3.4 466.79C-0.510002 490.32 1.05 500.96 3.21 524.84C5.37 548.72 11.79 610.46 19.15 623.87C34.5 630.55 57.38 635.3 84.03 628.61C110.68 621.92 132.36 611.98 141.59 601.2V601.21Z" fill="white" stroke="black" stroke-width="2" stroke-linecap="round" stroke-linejoin="round"/>
<g id="Vector_116">
<path d="M246.47 522.93C229.84 504.53 212.41 481.54 193.68 444.19C174.95 406.84 163.22 386.74 155.02 370.39C167.56 368.68 219.12 370.39 219.12 370.39" fill="white"/>
<path d="M246.47 522.93C229.84 504.53 212.41 481.54 193.68 444.19C174.95 406.84 163.22 386.74 155.02 370.39C167.56 368.68 219.12 370.39 219.12 370.39" stroke="black" stroke-width="2" stroke-linecap="round" stroke-linejoin="round"/>
</g>
<path id="Vector_117" d="M61.86 631.78C52.47 622.39 47.24 614.05 46.66 605.71C46.08 597.37 51.02 585.39 55.21 573.52C59.4 561.65 59.59 549.03 56.44 540.28C51.34 547.82 48.45 553.21 43.42 552.38C38.39 551.55 36.44 546.05 38.5 538.4C40.56 530.75 46.67 521.44 52.61 511.08C58.55 500.72 67.49 481.99 66.84 471C62.18 475.37 54.69 480.71 50.34 478.28C45.99 475.85 47.52 468.2 51.41 463.79C55.3 459.38 62.94 455.19 65.48 447.84C68.02 440.49 65.58 433.77 68.7 424.73C71.82 415.69 84.81 401.51 98.51 396.77C85.15 398.25 74.26 401.47 66.22 406.4C58.18 411.33 51.17 418.13 47.67 427.21C44.17 436.29 45.21 441.91 33.94 446.99C23.85 451.53 16.7 454.37 14.04 459.98C9.97 468.57 16.85 485.68 15.37 493.05C13.89 500.42 10.2 505.03 1.38 503.17C1.38 514.94 2.71 546.36 7.35 573.41C11.99 600.46 14.45 622.98 20.83 626.85C27.21 630.72 50.37 631.77 61.89 631.77L61.86 631.78Z" fill="#F1B3CC" stroke="black" stroke-width="2" stroke-linecap="round" stroke-linejoin="round"/>
<g id="Group_27">
<path id="Vector_118" d="M27.7881 610.898C29.9845 610.662 31.5137 608.133 31.2036 605.251C30.8935 602.368 28.8615 600.222 26.665 600.459C24.4685 600.695 22.9393 603.223 23.2495 606.106C23.5596 608.989 25.5916 611.135 27.7881 610.898Z" fill="#B6B5C5" stroke="black" stroke-width="2" stroke-linecap="round" stroke-linejoin="round"/>
<path id="Vector_119" d="M22.0383 563.171C24.1014 562.99 25.5631 560.444 25.3031 557.484C25.0431 554.524 23.1599 552.271 21.0968 552.453C19.0336 552.634 17.5719 555.18 17.8319 558.14C18.0919 561.1 19.9752 563.353 22.0383 563.171Z" fill="#B6B5C5" stroke="black" stroke-width="2" stroke-linecap="round" stroke-linejoin="round"/>
<path id="Vector_120" d="M29.1232 514.879C29.3763 512.545 28.2551 510.51 26.6189 510.332C24.9827 510.155 23.4511 511.903 23.198 514.236C22.9449 516.57 24.0662 518.605 25.7024 518.783C27.3386 518.96 28.8701 517.212 29.1232 514.879Z" fill="#B6B5C5" stroke="black" stroke-width="2" stroke-linecap="round" stroke-linejoin="round"/>
<path id="Vector_121" d="M35.8334 471.182C36.1938 468.93 34.9961 466.865 33.1583 466.571C31.3204 466.277 29.5385 467.865 29.1781 470.117C28.8177 472.369 30.0155 474.434 31.8533 474.728C33.6911 475.022 35.4731 473.434 35.8334 471.182Z" fill="#B6B5C5" stroke="black" stroke-width="2" stroke-linecap="round" stroke-linejoin="round"/>
</g>
<path id="Vector_122" d="M364.44 408.17C362.72 430.56 360.59 449.79 355.7 469.18C350.81 488.57 343.79 504.25 334.45 523.73" stroke="black" stroke-width="2" stroke-linecap="round" stroke-linejoin="round"/>
<path id="Vector_123" d="M129.28 643.06C134.58 630.19 144.64 621.39 158.68 622.08C147.57 629.91 143.2 637.68 144.68 645.02C146.16 652.36 148.78 656.22 157.77 658.22C166.76 660.22 180.76 658.34 188.6 652C197.27 645 201.17 637.97 209.58 636.59C204.67 644.89 205.84 652.63 209.06 655.37C212.28 658.11 222.08 656.78 224.38 649.36C226.68 641.94 222.7 623.59 219.03 615.6C213.07 602.63 207.6 590 210.35 577.78C217.46 582.83 221.98 581.98 224.32 580.15C226.66 578.32 231.92 573.84 224.99 557.06C218.06 540.28 216.49 543.51 212.94 536.33C210.91 532.21 205.61 515.16 208.92 508.74C213.23 515.72 217.22 519.83 222.09 519.01C226.96 518.19 230.87 515.04 230.43 504.47C237.92 516.07 239.95 516.93 242.74 520.65C243.33 526.39 247.05 649.94 249.06 691.4C232.82 702.91 212.19 703.63 189.62 703.63C167.05 703.63 147.11 703.64 118.96 682.44C122.79 667.82 129.26 643.07 129.26 643.07L129.28 643.06Z" fill="#EFB4CA" stroke="black" stroke-width="2" stroke-linecap="round" stroke-linejoin="round"/>
<path id="Vector_124" d="M298.32 309.18C332.65 282.99 363.36 262.54 400.22 231.93C437.08 201.33 498.66 149.73 526.57 114.24C547.36 125.77 567.63 145.71 574.27 166.06C580.91 186.41 582.77 214.74 580.29 227.06C578.69 235.04 580.11 236.76 566.13 242.86C552.15 248.96 511.49 271.84 463.21 299.75C414.93 327.66 378.19 352.97 353.72 377.44C325.95 352.43 298.32 309.16 298.32 309.16V309.18Z" fill="white" stroke="black" stroke-width="2" stroke-linecap="round" stroke-linejoin="round"/>
<path id="Vector_125" d="M410.99 222.96C417 224.79 410.81 237 406.26 240.1C419.75 236.56 432.19 229.29 437.77 220.98C443.35 212.67 455.5 194.24 461.9 187.37C468.3 180.5 475.91 176.11 479.03 180.98C482.15 185.85 484.03 195.82 478.8 206.61C489.85 196.6 494.5 192.5 497.32 183.26C500.14 174.02 500.2 159.14 505.51 151.38C510.82 143.62 521.62 130.03 548.69 130.03C537.91 119.25 526.55 114.24 526.55 114.24C526.55 114.24 508.66 136.61 479.29 163.43C449.84 190.33 428.42 207.02 410.98 222.95L410.99 222.96Z" fill="#EFB4CA" stroke="black" stroke-width="2" stroke-linecap="round" stroke-linejoin="round"/>
<path id="Vector_126" d="M332.57 685.54C332.57 654.8 337.25 554.04 333.23 492.04C329.21 430.04 304.57 307.63 299.24 292.57C318.39 310.51 336.88 324.54 343.93 329.49C342.65 335.62 332.19 350.97 332.19 350.97C332.19 350.97 336.96 354.13 343.93 348.97C350.9 343.81 354.93 338 356.53 341.67C358.13 345.34 366.59 383.65 364.19 411.53C370.86 425.48 378.75 450.91 382.02 476.28C385.29 501.65 393.76 556.86 396.2 589.91C398.64 622.96 399.21 652.12 399.21 665.23C391.38 674.06 372.17 691.62 332.57 685.55V685.54Z" fill="white" stroke="black" stroke-width="2" stroke-linecap="round" stroke-linejoin="round"/>
<path id="Vector_127" d="M333.41 524.7C338.57 515.9 343.49 504.16 343.49 504.16C343.49 504.16 342.24 513.88 349.42 515.38C353.1 516.15 358.66 511.95 360.6 506.83C363.46 524.22 360.1 539.74 354.33 552.99C348.56 566.24 341.61 576.02 344.58 582.72C346.73 587.57 355.55 589.39 362.02 573.86C364.6 599.01 362.81 608.13 359.65 621.13C356.49 634.13 356.91 649.27 366.92 650.33C376.93 651.39 383.26 645.99 385.68 638C388.1 630.01 388.2 625.15 386.36 619.4C393.09 620.72 397.13 626.44 398.09 630.39C398.09 637.55 399.13 657.95 399.13 666.34C390.02 674.77 359.48 688.91 349.47 687.93C339.46 686.95 332.57 688.92 331.72 686.37C330.87 683.82 334.12 615.48 334.12 591.85C334.12 568.22 333.4 524.71 333.4 524.71L333.41 524.7Z" fill="#E9B3CB" stroke="black" stroke-width="2" stroke-linecap="round" stroke-linejoin="round"/>
</g>
<g id="Group_28">
<path id="Vector_128" d="M296.51 305.13C295.74 315.51 296.07 329.34 301.6 337.76C307.12 346.18 317.59 375.1 317.59 407.36C317.59 439.62 312.64 500.47 303.1 519.47C279.09 502.35 257.4 469.71 253.32 444.71C249.24 419.71 246.22 387.91 231.09 370.82C215.96 353.73 202.64 320.61 202.64 294.88C203.84 280.97 204.8 266.96 204.8 266.96C204.8 266.96 194.05 261.76 190.22 271.77C186.39 281.78 188.47 315.32 186.77 327.94C185.07 340.56 175.36 392.04 167.82 411.36C185.8 400.78 208.22 387.69 218.01 379.27C218.01 379.27 228.9 392.95 232.26 409.65C233.83 417.48 240.95 467.9 243.45 525.33C245.95 582.76 247.39 650.79 247.39 661.74C259.92 669.84 264.45 675.19 272.89 678.01C283.71 668.36 298.34 650.56 301.89 642.07C307.31 655.37 312.52 668.79 317.79 671.3C324.6 668.61 330.33 664.62 333.2 660.7C335.32 618.75 332.78 578.26 332.78 524.39C332.78 456.76 322.64 382.45 320.1 370.94C317.56 359.43 316.8 355.7 330.09 363.65C343.38 371.6 345.73 374.32 350.17 377.32C349.52 365.48 344.9 356.27 336.53 341.1C328.16 325.93 311.19 299.43 299.26 292.58C297.75 297.24 296.52 305.14 296.52 305.14L296.51 305.13Z" fill="#9C9DCB" stroke="black" stroke-width="2" stroke-linecap="round" stroke-linejoin="round"/>
<path id="Vector_129" d="M218.01 379.27C222.53 375.63 226.66 371.05 228.5 366.69" stroke="black" stroke-width="2" stroke-linecap="round" stroke-linejoin="round"/>
<path id="Vector_130" d="M315.83 376.36C315.83 369.08 316.58 359.16 322.11 360.24C327.64 361.32 335.77 367.14 335.77 367.14" stroke="black" stroke-width="2" stroke-linecap="round" stroke-linejoin="round"/>
</g>
<path id="Vector_131" d="M246.09 949.99C253.66 946.89 259.04 946.54 267.27 946.54" stroke="black" stroke-width="2" stroke-linecap="round" stroke-linejoin="round"/>
<path id="Vector_132" d="M374.37 934.68C361.99 934.68 352.23 935.45 341.71 938.52" stroke="black" stroke-width="2" stroke-linecap="round" stroke-linejoin="round"/>
<path id="Vector_133" d="M373.88 927.86C368.49 922.47 359.67 914.83 360.25 905.93C365.45 911.13 370.25 912.83 374.49 913.07C374.49 918.66 373.88 927.85 373.88 927.85V927.86Z" fill="#E9B3CB" stroke="black" stroke-width="2" stroke-linecap="round" stroke-linejoin="round"/>
<path id="Vector_134" d="M376.12 862.07C371.33 858.56 368.16 854.04 368.16 849.49C368.16 844.94 368.78 842.1 370.36 838.78C373.02 843.71 374.94 845.92 377.22 846.47C377.22 851.49 376.12 862.07 376.12 862.07Z" fill="#E9B3CB" stroke="black" stroke-width="2" stroke-linecap="round" stroke-linejoin="round"/>
<path id="Vector_135" d="M378.14 817.74C373.01 812.61 371.65 807.64 371.45 802.02C371.25 796.4 372.74 786.52 375.1 781.99C377.86 787.14 379.16 787.35 379 790.21C378.84 793.07 378.14 817.75 378.14 817.75V817.74Z" fill="#E9B3CB" stroke="black" stroke-width="2" stroke-linecap="round" stroke-linejoin="round"/>
</g>
</g>
<defs>
<clipPath id="clip0_1_2">
<rect width="624" height="1079.9" fill="white"/>
</clipPath>
</defs>
</svg>
