<svg width="341" height="341" viewBox="0 0 341 341" fill="none" xmlns="http://www.w3.org/2000/svg">
<mask id="mask0_62_179" style="mask-type:alpha" maskUnits="userSpaceOnUse" x="0" y="0" width="341" height="341">
<rect width="341" height="341" rx="24" fill="#D9D9D9"/>
</mask>
<g mask="url(#mask0_62_179)">
<rect width="341" height="341" rx="24" fill="#0382F8"/>
<path d="M132.55 306.354C137.11 280.344 135.25 233.834 135.25 206.574C135.25 179.314 140.69 98.7042 196.84 95.5442C252.99 92.3842 255.76 128.084 256.78 133.844C257.8 139.604 259.63 156.144 259.63 163.104C260.91 165.124 264.65 165.914 265.74 170.474C266.83 175.034 265.26 186.014 265.79 201.084C266.32 216.154 265.48 229.014 259.85 229.714C259 236.574 254.98 240.144 255.28 245.394C255.58 250.644 261.91 255.074 266.33 257.614C270.75 260.154 274.27 260.024 273.79 266.834C273.31 273.644 264.56 279.384 246.77 279.384C246.77 283.564 243.56 290.004 234.7 291.934C227.79 293.444 228.09 305.734 227.32 316.114C226.55 326.494 226.88 340.324 232.41 348.744C237.94 357.164 248.4 386.084 248.4 418.344C248.4 450.604 243.45 511.454 233.91 530.454C209.9 513.334 187.6 481.954 183.52 456.964C179.44 431.974 177.03 398.894 161.9 381.804C146.77 364.714 132.55 332.074 132.55 306.344V306.354Z" fill="#F8DB03" stroke="black" stroke-width="2" stroke-miterlimit="10"/>
<path d="M247.049 279.524C234.669 279.524 202.169 278.054 184.609 270.954" stroke="black" stroke-width="2" stroke-linecap="round" stroke-linejoin="round"/>
<path d="M173.799 279.524C173.259 273.494 174.009 266.514 177.929 261.954C183.419 254.244 206.209 248.154 208.569 242.064" stroke="black" stroke-width="2" stroke-linecap="round" stroke-linejoin="round"/>
<path d="M178.629 224.964C193.403 224.964 205.379 214.219 205.379 200.964C205.379 187.709 193.403 176.964 178.629 176.964C163.856 176.964 151.879 187.709 151.879 200.964C151.879 214.219 163.856 224.964 178.629 224.964Z" fill="#951E7F" stroke="black" stroke-width="2" stroke-linecap="round" stroke-linejoin="round"/>
<path d="M182.539 224.964C195.154 224.964 205.379 214.555 205.379 201.714C205.379 188.874 195.154 178.464 182.539 178.464C169.925 178.464 159.699 188.874 159.699 201.714C159.699 214.555 169.925 224.964 182.539 224.964Z" stroke="black" stroke-width="2" stroke-linecap="round" stroke-linejoin="round"/>
<path d="M170.79 207.764L186.15 192.404" stroke="black" stroke-width="2" stroke-linecap="round" stroke-linejoin="round"/>
<path d="M177.79 210.364L189.69 198.474" stroke="black" stroke-width="2" stroke-linecap="round" stroke-linejoin="round"/>
<path d="M135.069 258.654C131.199 268.224 126.079 270.224 116.669 268.424C107.259 266.624 102.809 251.274 102.809 251.274C102.809 251.274 93.2895 254.754 85.3595 247.694C77.4295 240.634 80.2295 224.694 80.2295 224.694C80.2295 224.694 71.4795 228.504 65.1695 220.854C58.8595 213.204 60.1494 200.774 60.1494 200.774C60.1494 200.774 44.6495 195.454 44.6495 179.364C43.7395 163.134 57.4895 157.514 57.4895 157.514C57.4895 157.514 50.7895 153.124 50.7895 143.674C50.7895 134.224 59.2594 130.504 59.2594 130.504C59.2594 130.504 57.2394 125.334 58.1794 113.604C59.1194 101.874 66.0294 93.4442 78.0094 89.3142C77.3894 80.1042 78.3795 75.7642 82.5895 70.2742C86.7995 64.7842 97.0595 63.3342 97.0595 63.3342C97.0595 63.3342 96.0394 54.7742 105.119 46.2842C114.199 37.7942 128.399 38.7342 128.399 38.7342C128.399 38.7342 133.979 29.1942 142.309 26.3242C150.639 23.4542 162.769 27.6342 162.769 27.6342C162.769 27.6342 166.689 13.0642 177.109 12.0642C187.529 11.0642 193.599 22.0842 193.599 22.0842C193.599 22.0842 195.149 17.8142 201.959 18.4342C208.769 19.0542 215.599 28.7042 215.599 28.7042C215.599 28.7042 229.279 17.9842 242.229 24.2242C255.179 30.4642 258.369 47.5642 258.369 47.5642C258.369 47.5642 268.699 48.7742 272.459 53.7642C276.219 58.7542 276.049 67.6042 276.049 67.6042C276.049 67.6042 286.809 67.4042 288.849 77.4242C290.889 87.4442 287.839 97.1642 287.839 97.1642C287.839 97.1642 296.379 97.9942 297.749 108.784C299.119 119.574 292.109 125.704 292.109 125.704C292.109 125.704 300.649 129.954 300.649 142.624C300.649 155.294 289.199 164.494 289.199 164.494C289.199 164.494 291.739 183.144 280.489 188.764C269.239 194.384 266.819 185.774 266.819 179.024C266.819 163.854 261.969 169.644 259.089 162.344C257.409 158.064 258.269 144.924 258.269 144.924C258.269 144.924 252.209 146.464 247.579 146.304C242.949 146.144 235.029 142.454 235.029 142.454C235.029 142.454 228.099 147.024 221.189 146.384C214.279 145.744 207.519 139.544 207.519 139.544C207.519 139.544 200.899 148.494 193.339 147.914C185.779 147.334 181.379 141.424 181.379 141.424C181.379 141.424 177.909 148.954 169.759 151.164C161.609 153.374 150.959 147.404 150.959 147.404C150.959 147.404 150.819 152.474 149.589 159.024C147.439 170.514 141.729 171.494 141.729 171.494C141.729 171.494 144.399 174.534 143.239 181.984C142.079 189.434 140.019 189.604 140.019 189.604C140.019 189.604 144.729 199.794 140.449 206.864C136.269 213.624 135.069 231.314 135.069 231.314V258.644V258.654Z" fill="#786431" stroke="black" stroke-width="2" stroke-linecap="round" stroke-linejoin="round"/>
<path d="M259.859 217.824C271.872 217.824 281.609 209.013 281.609 198.144C281.609 187.275 271.872 178.464 259.859 178.464C247.847 178.464 238.109 187.275 238.109 198.144C238.109 209.013 247.847 217.824 259.859 217.824Z" fill="#951E7F" stroke="black" stroke-width="2" stroke-linecap="round" stroke-linejoin="round"/>
<path d="M263.609 215.804C273.551 215.804 281.609 207.745 281.609 197.804C281.609 187.863 273.551 179.804 263.609 179.804C253.668 179.804 245.609 187.863 245.609 197.804C245.609 207.745 253.668 215.804 263.609 215.804Z" stroke="black" stroke-width="2" stroke-linecap="round" stroke-linejoin="round"/>
<path d="M257.399 201.714L268.039 191.074" stroke="black" stroke-width="2" stroke-linecap="round" stroke-linejoin="round"/>
<path d="M263.609 203.244L271.939 194.914" stroke="black" stroke-width="2" stroke-linecap="round" stroke-linejoin="round"/>
<path d="M205.379 203.004C212.649 197.824 232.369 195.984 244.279 203.504C256.189 211.024 262.759 230.334 256.929 241.774C251.099 253.214 225.539 245.304 223.099 241.044" fill="#F8DB03"/>
<path d="M205.379 203.004C212.649 197.824 232.369 195.984 244.279 203.504C256.189 211.024 262.759 230.334 256.929 241.774C251.099 253.214 225.539 245.304 223.099 241.044" stroke="black" stroke-width="2" stroke-linecap="round" stroke-linejoin="round"/>
<path d="M141.24 213.124C137.17 208.484 127.77 207.844 122.26 212.024C116.75 216.204 115.5 222.374 115.5 229.534C115.5 237.884 118.4 244.104 123.78 247.554C129.16 251.004 136.3 251.974 143.24 245.034" fill="#F8DB03"/>
<path d="M141.24 213.124C137.17 208.484 127.77 207.844 122.26 212.024C116.75 216.204 115.5 222.374 115.5 229.534C115.5 237.884 118.4 244.104 123.78 247.554C129.16 251.004 136.3 251.974 143.24 245.034" stroke="black" stroke-width="2" stroke-linecap="round" stroke-linejoin="round"/>
<path d="M135.069 219.814C128.799 218.734 126.219 222.174 125.579 226.614C124.939 231.054 127.369 234.334 130.529 237.484" stroke="black" stroke-width="2" stroke-linecap="round" stroke-linejoin="round"/>
<path d="M140.439 206.874H152.699" stroke="black" stroke-width="2" stroke-linecap="round" stroke-linejoin="round"/>
<path d="M258.27 144.914C261.62 142.854 262.19 142.354 263.94 140.614" stroke="black" stroke-width="2" stroke-linecap="round" stroke-linejoin="round"/>
<path d="M178.819 702.024C178.819 630.924 178.749 525.164 173.579 478.284C168.409 431.404 159.729 392.124 140.199 366.344C120.669 340.564 121.709 325.334 108.119 329.464C94.5295 333.594 63.0895 357.424 52.2395 364.994C41.3895 372.564 60.8995 385.604 65.7795 399.504C70.6595 413.404 80.7795 477.354 79.3095 497.694C77.8395 518.034 72.7695 610.614 63.5995 639.964C54.4295 669.314 54.9095 674.434 48.9795 693.424C62.6495 703.514 84.7195 715.914 114.439 714.804C144.159 713.694 163.609 713.574 178.809 702.024H178.819Z" fill="white" stroke="black" stroke-width="2" stroke-linecap="round" stroke-linejoin="round"/>
<path d="M122.509 298.644C115.529 307.504 98.8194 349.154 99.4694 356.974C100.119 364.794 100.319 366.794 108.909 370.824C117.499 374.854 123.369 369.964 123.369 369.964L122.509 298.644Z" fill="white" stroke="black" stroke-width="2" stroke-linecap="round" stroke-linejoin="round"/>
<path d="M262.57 696.534C262.57 665.794 267.25 565.034 263.23 503.034C259.21 441.034 234.57 318.624 229.24 303.564C248.39 321.504 266.88 335.534 273.93 340.484C272.65 346.614 262.19 361.964 262.19 361.964C262.19 361.964 266.96 365.124 273.93 359.964C280.9 354.804 284.93 348.994 286.53 352.664C288.13 356.334 296.59 394.644 294.19 422.524C300.86 436.474 308.75 461.904 312.02 487.274C315.29 512.644 323.76 567.854 326.2 600.904C328.64 633.954 329.21 663.114 329.21 676.224C321.38 685.054 302.17 702.614 262.57 696.544V696.534Z" fill="white" stroke="black" stroke-width="2" stroke-linecap="round" stroke-linejoin="round"/>
<path d="M226.509 316.124C225.739 326.504 226.069 340.334 231.599 348.754C237.119 357.174 247.589 386.094 247.589 418.354C247.589 450.614 242.639 511.464 233.099 530.464C209.089 513.344 187.399 480.704 183.319 455.704C179.239 430.704 176.219 398.904 161.089 381.814C145.959 364.724 132.639 331.604 132.639 305.874C133.839 291.964 134.799 277.954 134.799 277.954C134.799 277.954 124.049 272.754 120.219 282.764C116.389 292.774 118.469 326.314 116.769 338.934C115.069 351.554 105.359 403.034 97.8193 422.354C115.799 411.774 138.219 398.684 148.009 390.264C148.009 390.264 158.899 403.944 162.259 420.644C163.829 428.474 170.949 478.894 173.449 536.324C175.949 593.754 177.389 661.784 177.389 672.734C189.919 680.834 194.449 686.184 202.889 689.004C213.709 679.354 228.339 661.554 231.889 653.064C237.309 666.364 242.519 679.784 247.789 682.294C254.599 679.604 260.329 675.614 263.199 671.694C265.319 629.744 262.779 589.254 262.779 535.384C262.779 467.754 252.639 393.444 250.099 381.934C247.559 370.424 246.799 366.694 260.089 374.644C273.379 382.594 275.729 385.314 280.169 388.314C279.519 376.474 274.899 367.264 266.529 352.094C258.159 336.924 241.189 310.424 229.259 303.574C227.749 308.234 226.519 316.134 226.519 316.134L226.509 316.124Z" fill="#9C9DCB" stroke="black" stroke-width="2" stroke-linecap="round" stroke-linejoin="round"/>
<path d="M132.55 306.354C137.11 280.344 135.25 233.834 135.25 206.574C135.25 179.314 140.69 98.7042 196.84 95.5442C252.99 92.3842 255.76 128.084 256.78 133.844C257.8 139.604 259.63 156.144 259.63 163.104C260.91 165.124 264.65 165.914 265.74 170.474C266.83 175.034 265.26 186.014 265.79 201.084C266.32 216.154 265.48 229.014 259.85 229.714C259 236.574 254.98 240.144 255.28 245.394C255.58 250.644 261.91 255.074 266.33 257.614C270.75 260.154 274.27 260.024 273.79 266.834C273.31 273.644 264.56 279.384 246.77 279.384C246.77 283.564 243.56 290.004 234.7 291.934C227.79 293.444 228.09 305.734 227.32 316.114C226.55 326.494 226.88 340.324 232.41 348.744C237.94 357.164 248.4 386.084 248.4 418.344C248.4 450.604 243.45 511.454 233.91 530.454C209.9 513.334 187.6 481.954 183.52 456.964C179.44 431.974 177.03 398.894 161.9 381.804C146.77 364.714 132.55 332.074 132.55 306.344V306.354Z" fill="#F8DB03" stroke="black" stroke-width="2" stroke-miterlimit="10"/>
<path d="M247.049 279.524C234.669 279.524 202.169 278.054 184.609 270.954" stroke="black" stroke-width="2" stroke-linecap="round" stroke-linejoin="round"/>
<path d="M173.799 279.524C173.259 273.494 174.009 266.514 177.929 261.954C183.419 254.244 206.209 248.154 208.569 242.064" stroke="black" stroke-width="2" stroke-linecap="round" stroke-linejoin="round"/>
<path d="M178.629 224.964C193.403 224.964 205.379 214.219 205.379 200.964C205.379 187.709 193.403 176.964 178.629 176.964C163.856 176.964 151.879 187.709 151.879 200.964C151.879 214.219 163.856 224.964 178.629 224.964Z" fill="#951E7F" stroke="black" stroke-width="2" stroke-linecap="round" stroke-linejoin="round"/>
<path d="M182.539 224.964C195.154 224.964 205.379 214.555 205.379 201.714C205.379 188.874 195.154 178.464 182.539 178.464C169.925 178.464 159.699 188.874 159.699 201.714C159.699 214.555 169.925 224.964 182.539 224.964Z" stroke="black" stroke-width="2" stroke-linecap="round" stroke-linejoin="round"/>
<path d="M170.79 207.764L186.15 192.404" stroke="black" stroke-width="2" stroke-linecap="round" stroke-linejoin="round"/>
<path d="M177.79 210.364L189.69 198.474" stroke="black" stroke-width="2" stroke-linecap="round" stroke-linejoin="round"/>
<path d="M135.069 258.654C131.199 268.224 126.079 270.224 116.669 268.424C107.259 266.624 102.809 251.274 102.809 251.274C102.809 251.274 93.2895 254.754 85.3595 247.694C77.4295 240.634 80.2295 224.694 80.2295 224.694C80.2295 224.694 71.4795 228.504 65.1695 220.854C58.8595 213.204 60.1494 200.774 60.1494 200.774C60.1494 200.774 44.6495 195.454 44.6495 179.364C43.7395 163.134 57.4895 157.514 57.4895 157.514C57.4895 157.514 50.7895 153.124 50.7895 143.674C50.7895 134.224 59.2594 130.504 59.2594 130.504C59.2594 130.504 57.2394 125.334 58.1794 113.604C59.1194 101.874 66.0294 93.4442 78.0094 89.3142C77.3894 80.1042 78.3795 75.7642 82.5895 70.2742C86.7995 64.7842 97.0595 63.3342 97.0595 63.3342C97.0595 63.3342 96.0394 54.7742 105.119 46.2842C114.199 37.7942 128.399 38.7342 128.399 38.7342C128.399 38.7342 133.979 29.1942 142.309 26.3242C150.639 23.4542 162.769 27.6342 162.769 27.6342C162.769 27.6342 166.689 13.0642 177.109 12.0642C187.529 11.0642 193.599 22.0842 193.599 22.0842C193.599 22.0842 195.149 17.8142 201.959 18.4342C208.769 19.0542 215.599 28.7042 215.599 28.7042C215.599 28.7042 229.279 17.9842 242.229 24.2242C255.179 30.4642 258.369 47.5642 258.369 47.5642C258.369 47.5642 268.699 48.7742 272.459 53.7642C276.219 58.7542 276.049 67.6042 276.049 67.6042C276.049 67.6042 286.809 67.4042 288.849 77.4242C290.889 87.4442 287.839 97.1642 287.839 97.1642C287.839 97.1642 296.379 97.9942 297.749 108.784C299.119 119.574 292.109 125.704 292.109 125.704C292.109 125.704 300.649 129.954 300.649 142.624C300.649 155.294 289.199 164.494 289.199 164.494C289.199 164.494 291.739 183.144 280.489 188.764C269.239 194.384 266.819 185.774 266.819 179.024C266.819 163.854 261.969 169.644 259.089 162.344C257.409 158.064 258.269 144.924 258.269 144.924C258.269 144.924 252.209 146.464 247.579 146.304C242.949 146.144 235.029 142.454 235.029 142.454C235.029 142.454 228.099 147.024 221.189 146.384C214.279 145.744 207.519 139.544 207.519 139.544C207.519 139.544 200.899 148.494 193.339 147.914C185.779 147.334 181.379 141.424 181.379 141.424C181.379 141.424 177.909 148.954 169.759 151.164C161.609 153.374 150.959 147.404 150.959 147.404C150.959 147.404 150.819 152.474 149.589 159.024C147.439 170.514 141.729 171.494 141.729 171.494C141.729 171.494 144.399 174.534 143.239 181.984C142.079 189.434 140.019 189.604 140.019 189.604C140.019 189.604 144.729 199.794 140.449 206.864C136.269 213.624 135.069 231.314 135.069 231.314V258.644V258.654Z" fill="#786431" stroke="black" stroke-width="2" stroke-linecap="round" stroke-linejoin="round"/>
<path d="M259.859 217.824C271.872 217.824 281.609 209.013 281.609 198.144C281.609 187.275 271.872 178.464 259.859 178.464C247.847 178.464 238.109 187.275 238.109 198.144C238.109 209.013 247.847 217.824 259.859 217.824Z" fill="#951E7F" stroke="black" stroke-width="2" stroke-linecap="round" stroke-linejoin="round"/>
<path d="M263.609 215.804C273.551 215.804 281.609 207.745 281.609 197.804C281.609 187.863 273.551 179.804 263.609 179.804C253.668 179.804 245.609 187.863 245.609 197.804C245.609 207.745 253.668 215.804 263.609 215.804Z" stroke="black" stroke-width="2" stroke-linecap="round" stroke-linejoin="round"/>
<path d="M257.399 201.714L268.039 191.074" stroke="black" stroke-width="2" stroke-linecap="round" stroke-linejoin="round"/>
<path d="M263.609 203.244L271.939 194.914" stroke="black" stroke-width="2" stroke-linecap="round" stroke-linejoin="round"/>
<path d="M205.379 203.004C212.649 197.824 232.369 195.984 244.279 203.504C256.189 211.024 262.759 230.334 256.929 241.774C251.099 253.214 225.539 245.304 223.099 241.044" fill="#F8DB03"/>
<path d="M205.379 203.004C212.649 197.824 232.369 195.984 244.279 203.504C256.189 211.024 262.759 230.334 256.929 241.774C251.099 253.214 225.539 245.304 223.099 241.044" stroke="black" stroke-width="2" stroke-linecap="round" stroke-linejoin="round"/>
<path d="M141.24 213.124C137.17 208.484 127.77 207.844 122.26 212.024C116.75 216.204 115.5 222.374 115.5 229.534C115.5 237.884 118.4 244.104 123.78 247.554C129.16 251.004 136.3 251.974 143.24 245.034" fill="#F8DB03"/>
<path d="M141.24 213.124C137.17 208.484 127.77 207.844 122.26 212.024C116.75 216.204 115.5 222.374 115.5 229.534C115.5 237.884 118.4 244.104 123.78 247.554C129.16 251.004 136.3 251.974 143.24 245.034" stroke="black" stroke-width="2" stroke-linecap="round" stroke-linejoin="round"/>
<path d="M135.069 219.814C128.799 218.734 126.219 222.174 125.579 226.614C124.939 231.054 127.369 234.334 130.529 237.484" stroke="black" stroke-width="2" stroke-linecap="round" stroke-linejoin="round"/>
<path d="M140.439 206.874H152.699" stroke="black" stroke-width="2" stroke-linecap="round" stroke-linejoin="round"/>
<path d="M258.27 144.914C261.62 142.854 262.19 142.354 263.94 140.614" stroke="black" stroke-width="2" stroke-linecap="round" stroke-linejoin="round"/>
<path d="M226.509 316.124C225.739 326.504 226.069 340.334 231.599 348.754C237.119 357.174 247.589 386.094 247.589 418.354C247.589 450.614 242.639 511.464 233.099 530.464C209.089 513.344 187.399 480.704 183.319 455.704C179.239 430.704 176.219 398.904 161.089 381.814C145.959 364.724 132.639 331.604 132.639 305.874C133.839 291.964 134.799 277.954 134.799 277.954C134.799 277.954 124.049 272.754 120.219 282.764C116.389 292.774 118.469 326.314 116.769 338.934C115.069 351.554 105.359 403.034 97.8193 422.354C115.799 411.774 138.219 398.684 148.009 390.264C148.009 390.264 158.899 403.944 162.259 420.644C163.829 428.474 170.949 478.894 173.449 536.324C175.949 593.754 177.389 661.784 177.389 672.734C189.919 680.834 194.449 686.184 202.889 689.004C213.709 679.354 228.339 661.554 231.889 653.064C237.309 666.364 242.519 679.784 247.789 682.294C254.599 679.604 260.329 675.614 263.199 671.694C265.319 629.744 262.779 589.254 262.779 535.384C262.779 467.754 252.639 393.444 250.099 381.934C247.559 370.424 246.799 366.694 260.089 374.644C273.379 382.594 275.729 385.314 280.169 388.314C279.519 376.474 274.899 367.264 266.529 352.094C258.159 336.924 241.189 310.424 229.259 303.574C227.749 308.234 226.519 316.134 226.519 316.134L226.509 316.124Z" fill="#9C9DCB" stroke="black" stroke-width="2" stroke-linecap="round" stroke-linejoin="round"/>
</g>
</svg>
